<?xml version="1.0" encoding="UTF-8" standalone="no"?>
<!-- Created with Inkscape (http://www.inkscape.org/) -->

<svg
   width="151.34993mm"
   height="151.3799mm"
   viewBox="0 0 151.34993 151.3799"
   version="1.1"
   id="svg5"
   inkscape:version="1.1.1 (3bf5ae0d25, 2021-09-20)"
   sodipodi:docname="aoa_r.svg"
   xmlns:inkscape="http://www.inkscape.org/namespaces/inkscape"
   xmlns:sodipodi="http://sodipodi.sourceforge.net/DTD/sodipodi-0.dtd"
   xmlns="http://www.w3.org/2000/svg"
   xmlns:svg="http://www.w3.org/2000/svg">
  <sodipodi:namedview
     id="namedview7"
     pagecolor="#ffffff"
     bordercolor="#999999"
     borderopacity="1"
     inkscape:pageshadow="0"
     inkscape:pageopacity="0"
     inkscape:pagecheckerboard="0"
     inkscape:document-units="mm"
     showgrid="false"
     fit-margin-top="0"
     fit-margin-left="0"
     fit-margin-right="0"
     fit-margin-bottom="0"
     inkscape:zoom="0.77771465"
     inkscape:cx="277.73683"
     inkscape:cy="343.95649"
     inkscape:window-width="1920"
     inkscape:window-height="1129"
     inkscape:window-x="1672"
     inkscape:window-y="-8"
     inkscape:window-maximized="1"
     inkscape:current-layer="layer1" />
  <defs
     id="defs2">
    <inkscape:path-effect
       effect="offset"
       id="path-effect1614"
       is_visible="true"
       lpeversion="1"
       linejoin_type="miter"
       unit="mm"
       offset="3.1"
       miter_limit="4"
       attempt_force_join="false"
       update_on_knot_move="true" />
    <inkscape:path-effect
       effect="clone_original"
       id="path-effect1378"
       is_visible="true"
       lpeversion="1"
       linkeditem=""
       method="d"
       attributes=""
       css_properties=""
       allow_transforms="true" />
    <inkscape:path-effect
       effect="offset"
       id="path-effect1376"
       is_visible="true"
       lpeversion="1"
       linejoin_type="miter"
       unit="mm"
       offset="2"
       miter_limit="4"
       attempt_force_join="false"
       update_on_knot_move="true" />
    <linearGradient
       id="gradientFill-1"
       x1="0.7414425"
       x2="590.86261"
       y1="3.6658268"
       y2="593.78699"
       gradientUnits="userSpaceOnUse"
       spreadMethod="pad"
       gradientTransform="scale(1.2219423,0.81836924)">
      <stop
         offset="0"
         stop-color="rgb(203,206,208)"
         stop-opacity="1"
         id="stop844" />
      <stop
         offset="1"
         stop-color="rgb(132,131,139)"
         stop-opacity="1"
         id="stop846" />
    </linearGradient>
    <linearGradient
       id="gradientFill-2"
       x1="301.02603"
       x2="703.0675"
       y1="151.4006"
       y2="553.44208"
       gradientUnits="userSpaceOnUse"
       spreadMethod="pad"
       gradientTransform="scale(0.9899476,1.0101545)">
      <stop
         offset="0"
         stop-color="rgb(39,109,195)"
         stop-opacity="1"
         id="stop849" />
      <stop
         offset="1"
         stop-color="rgb(22,92,170)"
         stop-opacity="1"
         id="stop851" />
    </linearGradient>
  </defs>
  <g
     inkscape:label="Layer 1"
     inkscape:groupmode="layer"
     id="layer1"
     transform="translate(-42.309167,-15.399131)">
    <path
       id="path4573"
       style="display:inline;fill:#000000;stroke-width:0.143926"
       d="m 286.36914,0 -4.96484,0.24414062 -4.96485,0.2421875 -2.23047,0.13085938 -2.23242,0.12890625 -1.65429,0.0820313 -1.65625,0.0820313 -5.32422,0.28124995 -5.32618,0.2832032 -5.39648,0.2910156 -5.39648,0.2890625 -8.34766,0.4355469 -8.34961,0.4355468 -6.54687,0.3515626 -6.54883,0.3535156 -5.75781,0.2988281 -5.75782,0.3007813 -6.15429,0.3261718 -6.15625,0.3261719 -0.13086,0.1347656 -0.12891,0.1328125 -2.60156,6.2929683 -2.60157,6.291016 v 0.148437 0.148438 h 97.86915 97.87109 v -0.142578 -0.142578 l -0.875,-2.123047 -0.875,-2.125 L 381.5,11.986328 380.87109,10.476562 379.73438,7.7421875 378.59961,5.0058594 378.10938,4.9023438 377.61914,4.7988281 362.00391,3.9960938 346.38672,3.1953125 339.76758,2.84375 333.14648,2.4941406 331.7793,2.4121094 330.41211,2.3320312 319.68945,1.7695312 308.9668,1.2050781 297.66797,0.60351562 Z m -133.69141,21.777344 -0.29492,0.263672 -0.29687,0.261718 -3.16602,2.851563 -3.16601,2.851562 -0.57618,0.521485 -0.57617,0.521484 -2.80664,2.521484 -2.80664,2.521485 -4.3164,3.876953 -4.31836,3.878906 -0.0723,0.07813 -0.0723,0.07813 -3.45312,3.085938 -3.45508,3.085937 -0.0723,0.07617 -0.0703,0.07617 -0.72461,0.648437 -0.72461,0.646485 -1.43554,1.314453 -1.4336,1.314453 -0.73437,0.628906 -0.73242,0.628907 -4.37696,3.947265 -4.375,3.945313 -1.21875,1.091797 -1.21679,1.089843 -0.94532,0.865235 -0.94531,0.863281 -3.44336,3.09375 -3.44531,3.09375 -1.445312,1.292969 -1.445313,1.292969 -3.677734,3.3125 -3.675782,3.314453 -1.691406,1.509765 -1.693359,1.511719 -1.539063,1.714844 -1.539062,1.716797 -0.591797,0.658203 -0.59375,0.660156 -5.433594,6.044922 -5.435547,6.044927 -1.617187,1.79883 -1.617188,1.79883 -2.917968,3.23828 -2.916016,3.23828 -1.742188,1.94336 -1.742187,1.94336 -0.07617,0.0723 -0.07813,0.0703 -2.521484,2.80665 -2.521485,2.80664 -5.171875,5.75781 -5.169922,5.75781 -1.224609,1.36719 -1.222656,1.36719 -0.07813,0.0723 -0.08008,0.0703 -1.796875,2.01563 -1.794922,2.01562 -0.07227,0.0723 -0.07227,0.0703 -1.222657,1.36914 -1.224609,1.36719 -0.07813,0.0703 -0.08008,0.0723 -4.511719,5.03711 -4.513672,5.03906 -0.40039,0.43164 -0.400391,0.43164 0.505859,1.22266 0.503906,1.22265 0.486329,1.15235 0.484375,1.15039 1.603515,3.88476 1.605469,3.88282 0.146484,0.27539 0.146485,0.27343 69.21289,-69.21289 69.212887,-69.210938 v -0.07422 -0.07227 l -1.47461,-0.605469 -1.47656,-0.603515 -3.8125,-1.574219 -3.81445,-1.574219 -1.2168,-0.517578 z m 266.66016,0.01563 -1.14258,0.474609 -1.14062,0.47461 -3.66992,1.517578 -3.66993,1.519531 -1.65625,0.681641 -1.65429,0.68164 -0.0664,0.05664 -0.0645,0.05664 69.22265,69.222657 69.22071,69.22265 0.0723,-0.002 0.0723,-0.002 1.64453,-3.99219 1.64648,-3.99219 0.56836,-1.36719 0.56836,-1.36718 0.48242,-1.13672 0.48438,-1.13868 -0.96875,-1.09374 -0.96875,-1.09376 -0.66406,-0.71874 -0.66407,-0.72071 -0.56054,-0.64648 -0.56055,-0.64844 -0.2168,-0.2168 -0.21484,-0.21484 -0.64844,-0.72266 -0.64844,-0.72265 -1.07812,-1.21485 -1.08008,-1.21679 -0.79101,-0.87305 -0.79297,-0.87305 -1.09961,-1.21875 -1.09766,-1.21875 -6.66015,-7.41211 -6.65821,-7.41211 -0.73437,-0.80273 -0.73242,-0.80469 -0.50782,-0.5625 -0.50976,-0.56445 -1.9375,-2.16602 -1.9375,-2.16601 -1.94336,-2.15235 -1.94336,-2.15039 -0.38477,-0.43164 -0.38476,-0.43164 -0.27735,-0.32031 -0.27734,-0.32031 -1.22266,-1.33594 -1.22461,-1.33398 -0.70507,-0.80469 -0.70508,-0.80469 -2.00391,-2.21875 -2.0039,-2.2168 -2.40039,-2.66211 -2.39844,-2.664055 -6.48828,-7.21875 -6.48828,-7.21875 -0.21094,-0.121093 -0.21094,-0.121094 -3.2793,-2.951172 -3.27929,-2.949219 -0.79688,-0.720703 -0.79883,-0.71875 -1.58789,-1.445312 -1.58789,-1.44336 -2.73437,-2.4375 -2.73438,-2.4375 -1.50781,-1.371094 -1.50977,-1.373046 -0.57812,-0.523438 -0.57813,-0.521484 -3.74218,-3.363282 -3.74219,-3.363281 -6.4043,-5.757812 -6.40234,-5.75586 -0.8086,-0.720703 -0.80859,-0.71875 -4.87891,-4.382812 -4.87695,-4.382813 -0.0723,-0.08008 -0.0703,-0.08203 -1.51758,-1.365235 -1.51562,-1.365234 -1.14648,-1.023437 -1.14649,-1.023438 -2.375,-2.128906 -2.375,-2.13086 -1.36719,-1.25 -1.36718,-1.25 -1.16211,-1.021484 z m -31.84375,5.287109 -5.72852,1.09375 -5.73046,1.095703 -2.58985,0.494141 -2.58984,0.49414 -4.89453,0.933594 -4.89258,0.933594 -8.70898,1.660156 -8.70704,1.66211 -1.43359,0.28125 -1.43359,0.28125 -0.0488,-0.04883 -0.0488,-0.04883 0.90625,-0.361328 0.90625,-0.363281 2.66406,-1.105469 2.66211,-1.107422 2.08594,-0.867187 2.08789,-0.867188 1.51172,-0.621093 1.50976,-0.623047 3.27735,-1.355469 3.27734,-1.355469 0.0937,-0.09375 0.0937,-0.0918 -75.76562,0.0039 -75.76563,0.0039 0.23242,0.136719 0.23243,0.134765 2.28711,0.953125 2.28515,0.953125 1.87109,0.769532 1.8711,0.767578 3.66992,1.52539 3.66992,1.525391 2.48828,1.021484 2.48828,1.021485 -0.0508,0.05078 -0.0488,0.04883 -4.02149,-0.78125 -4.02148,-0.779297 -5.75586,-1.095703 -5.75781,-1.097656 -1.43946,-0.269531 -1.43945,-0.269532 -4.89258,-0.939453 -4.89453,-0.939453 -2.66211,-0.505859 -2.66211,-0.503907 -4.53516,-0.867187 -4.5332,-0.867188 h -0.1543 -0.15625 l -0.30664,0.683594 -0.30664,0.683594 -0.58984,1.439453 -0.58789,1.439453 -0.44922,1.078125 -0.44922,1.080078 -0.0859,0.105469 -0.0879,0.103516 -1.58007,-0.646485 -1.57813,-0.644531 -0.28906,-0.136719 -0.28711,-0.136718 -1.41992,-0.582032 -1.41993,-0.580078 h -0.0371 -0.0371 l -1.97071,2.914063 -1.9707,2.914062 -1.375,2.015625 -1.375,2.013672 -2.19727,3.238281 -2.19531,3.238281 -1.37695,2.015626 -1.37696,2.015624 -1.21874,1.798829 -1.22071,1.798828 -1.5625,2.302734 -1.56445,2.302735 -2.00586,2.951171 -2.00586,2.949219 -1.27539,1.871094 -1.27539,1.871094 -0.44922,0.677734 -0.45117,0.677734 -0.043,-0.04297 -0.043,-0.04297 0.7793,-1.857422 0.77929,-1.857422 1.9043,-4.607422 1.9043,-4.605469 0.90039,-2.158203 0.90039,-2.158203 0.75391,-1.841797 0.75195,-1.839843 -0.0586,-0.06055 -0.0605,-0.06055 -53.53516,53.53516 -53.535154,53.5332 h 0.166015 0.167969 l 4.726562,-1.95898 4.726563,-1.96094 5.673828,-2.35742 5.673828,-2.35547 0.05469,0.0547 0.05469,0.0547 -0.691406,0.4336 -0.689453,0.43359 -1.943359,1.32617 -1.94336,1.32618 -4.822266,3.27929 -4.820312,3.2793 -1.798828,1.22656 -1.800781,1.22656 -4.173829,2.82813 -4.173828,2.82617 -2.445312,1.66406 -2.447266,1.66211 -3.814453,2.59571 -3.814453,2.5957 -0.111328,0.0977 -0.111328,0.0957 1.310547,3.15625 1.3125,3.1543 0.02344,0.18554 0.02344,0.1836 -3.210938,1.34765 -3.210937,1.34766 -0.08008,0.0801 -0.08203,0.082 0.677735,3.56836 0.675781,3.56836 1.359375,7.125 1.359375,7.12304 0.498047,2.5918 0.498047,2.58984 0.945312,4.9668 0.945313,4.96484 0.78125,4.10157 0.78125,4.10156 0.208984,1.07812 0.208984,1.07813 -0.03516,0.0332 -0.0332,0.0352 -1.75,-4.20703 -1.748047,-4.20508 -1.960937,-4.75 -1.960938,-4.75 -0.654297,-1.54688 -0.65625,-1.54687 h -0.05273 -0.05273 v 75.73242 75.73438 l 0.11914,-0.13672 0.119141,-0.13672 0.554687,-1.36719 0.552735,-1.36719 1.966797,-4.75 1.96875,-4.75 1.771484,-4.2832 1.773437,-4.2832 0.03906,0.0391 0.03906,0.0391 -0.130859,0.64649 -0.128906,0.64648 -1.021485,5.39649 -1.021484,5.39648 -0.707031,3.66992 -0.707031,3.67188 -1.521485,7.98632 -1.519531,7.98829 -1.080078,5.66601 -1.078125,5.66602 0.04492,0.13867 0.04687,0.13672 1.363281,0.57422 1.363281,0.57422 1.798828,0.72851 1.798828,0.72852 0.107422,0.0957 0.107422,0.0977 -1.011719,2.43945 -1.011718,2.44141 -0.369141,0.84179 -0.369141,0.8418 0.123047,0.11523 0.121094,0.11328 5.470703,3.70704 5.46875,3.70507 1.943359,1.32422 1.94336,1.32227 5.251953,3.57422 5.253906,3.57422 2.878907,1.94726 2.878906,1.94922 1.86914,1.2793 1.871094,1.27929 2.263672,1.52539 2.261719,1.5254 -0.03906,0.0391 -0.03906,0.0391 -2.798828,-1.1582 -2.798828,-1.15821 -2.734376,-1.13281 -2.734374,-1.13281 -3.958985,-1.64258 -3.957031,-1.64453 -0.982422,-0.39258 -0.980469,-0.39062 -0.05664,0.0547 -0.05664,0.0566 53.552729,53.53321 53.55079,53.53515 -0.0684,-0.2871 -0.0684,-0.28907 -1.52344,-3.66992 -1.52344,-3.66992 -2.6875,-6.47656 -2.6875,-6.47657 -0.0742,-0.21484 -0.0762,-0.2168 0.75781,1.08008 0.75586,1.07813 1.95508,2.8789 1.95703,2.87891 1.27735,1.87109 1.27539,1.8711 1.50976,2.23047 1.09375,1.61523 v -5.39649 l -2.01758,-2.01757 -8.94921,-8.95313 -1.81641,-4.39062 -1.81641,-4.38868 -2.23437,-5.39843 -2.23438,-5.39649 -1.21875,-2.95117 -1.2207,-2.95117 -0.47266,-1.15039 -0.47265,-1.15235 -1.08399,-2.58984 -1.08593,-2.58984 -1.24024,-3.02344 -1.24023,-3.02148 -0.35547,-0.81055 -0.35352,-0.80859 v -0.0918 -0.0918 l -0.28125,-0.60937 -0.28125,-0.61133 -2.3125,-5.61328 -2.31445,-5.61328 -0.11719,-0.21485 -0.11523,-0.21679 -6.60938,-2.75391 -6.60742,-2.75195 -0.36133,-0.15235 -0.35937,-0.15234 -3.88477,-1.60547 -3.88672,-1.60547 -2.44726,-1.00977 -2.447267,-1.01171 -4.316406,-1.78711 -4.31836,-1.78711 -0.648437,-0.2793 -0.646485,-0.28125 -8.564453,-3.53516 -8.5625,-3.53515 -8.955078,-8.94727 -8.953125,-8.94726 0.04102,-0.041 0.04297,-0.043 2.291016,0.95313 2.291016,0.95117 3.814453,1.58203 3.814453,1.58203 1.654297,0.68555 1.65625,0.6875 2.445312,1.00976 2.447266,1.00782 3.023437,1.25195 3.021485,1.25195 4.605469,1.91016 4.605468,1.91016 4.101563,1.69336 4.103515,1.69531 5.541021,2.29687 5.54101,2.29688 2.08594,0.86523 2.08789,0.86328 1.51172,0.625 1.50977,0.625 1.92773,0.80469 1.92774,0.80469 0.0625,-0.0645 0.0644,-0.0625 -1.6875,-4.07813 -1.6875,-4.07813 -0.91602,-2.23242 -0.91797,-2.23047 17.98633,17.98438 17.98633,17.98437 -0.0566,0.0586 -0.0586,0.0586 -2.0586,-0.85937 -2.05859,-0.85938 -4.07422,-1.6914 -4.07422,-1.69141 -0.0644,0.0645 -0.0645,0.0645 0.94727,2.29101 0.94727,2.28906 2.02343,4.89453 2.02344,4.89258 0.53906,1.29688 0.53907,1.29492 1.61328,3.88477 1.61328,3.88671 1.71875,4.17383 1.71875,4.17383 0.13476,0.28906 0.13477,0.28711 1.92773,4.67774 1.92774,4.67773 1.40429,3.38281 1.11719,2.69336 v -26.13867 l -0.90429,-2.17773 -1.46485,-3.52539 -0.82812,-2.01563 -0.82617,-2.01562 -1.53907,-3.72266 -1.53906,-3.72266 0.0488,-0.0488 0.0488,-0.0488 7.0039,7.00976 v -4.42382 l -1.54687,-0.64649 -2.16016,-0.90039 -1.81836,-0.75781 -1.81836,-0.75586 -0.72851,-1.7461 -0.72852,-1.74609 -1.10547,-2.66406 -1.10547,-2.66211 -0.46875,-1.15039 -0.46679,-1.15235 -0.30664,-0.69531 -0.30469,-0.69531 v -0.11328 -0.11328 l 4.49805,1.86328 4.49804,1.86328 3.31055,1.375 0.25195,0.10547 v -8.70508 l -4.42578,-1.83398 -3.88476,-1.61329 -3.88672,-1.61328 -1.94336,-0.79101 -1.94336,-0.78906 -0.71875,-0.32422 -0.7207,-0.32227 -1.00586,-0.39258 -1.00782,-0.39062 -1.32422,-3.19336 -1.32617,-3.19336 -1.78906,-4.31836 -1.79102,-4.31836 -1.75781,-4.24414 -1.75781,-4.24609 -0.83399,-2.01563 -0.83398,-2.01562 -1.22461,-2.94922 -1.22461,-2.95117 -1.22265,-2.95118 -1.22266,-2.94922 -3.12891,-7.55664 -3.12695,-7.55664 -1.04297,-2.51758 -1.04297,-2.51953 -2.44531,-5.90039 -2.44531,-5.90039 -2.26367,-5.4707 -2.26563,-5.46875 -1.69727,-4.10156 -1.69921,-4.10157 -1.962897,-4.75 -1.960938,-4.75 -0.634766,-1.51171 -0.634765,-1.50977 -0.949219,-2.30273 -0.949219,-2.30274 -0.419921,-1.00781 -0.421876,-1.00781 -2.171874,-5.25391 -2.171876,-5.25195 -0.482421,-1.15235 -0.480469,-1.15039 -0.71875,-1.72851 -0.720703,-1.72657 -1.542969,-3.74218 -1.542969,-3.74219 -2.267578,-5.46875 -2.267578,-5.46875 -0.605469,-1.48047 -0.605468,-1.47852 1.251953,-3.05468 1.253906,-3.05469 0.398437,-0.93555 0.398438,-0.93554 1.544922,-3.74219 1.544922,-3.74219 0.83789,-2.01367 0.837891,-2.01563 2.173828,-5.2539 2.173828,-5.25196 1.130859,-2.73632 1.13086,-2.73438 1.822266,-4.38867 1.820312,-4.39063 0.480469,-1.15039 0.482422,-1.15234 1.035156,-2.51758 1.033203,-2.51953 0.341797,-0.79101 0.341797,-0.79297 2.970709,-7.19532 2.96875,-7.19726 1.73047,-4.17383 1.72851,-4.17383 1.4043,-3.38086 1.40234,-3.38281 1.04492,-2.51953 1.04297,-2.51758 3.3086,-7.98828 3.31054,-7.98828 1.33399,-3.23828 1.33594,-3.23828 1.25781,-3.02149 1.25781,-3.02344 0.86133,-2.08593 0.86328,-2.08789 0.56836,-1.36719 0.56836,-1.36719 0.77148,-1.87109 0.77344,-1.8711 2.14453,-5.18164 2.14453,-5.18164 2.07227,-4.98828 2.07226,-4.98828 0.79493,-0.32227 0.79296,-0.32226 4.31836,-1.78711 4.31836,-1.78516 3.95703,-1.63867 3.95899,-1.63867 3.52539,-1.45313 3.52539,-1.45312 0.79297,-0.34375 0.79101,-0.3457 4.2461,-1.75196 4.24609,-1.75195 1.15039,-0.46875 1.15235,-0.4707 4.75,-1.96875 4.74804,-1.97071 4.03125,-1.66796 4.0293,-1.66602 0.75977,-0.33984 0.75976,-0.33985 h 0.0625 0.0625 l 2.27149,-0.94922 2.27343,-0.94922 4.46094,-1.84179 4.46289,-1.84375 3.52539,-1.46485 3.52539,-1.46679 3.31055,-1.36133 3.31055,-1.36328 0.43164,-0.19727 0.43164,-0.19726 0.79297,-0.3086 0.79101,-0.31054 1.51172,-0.62891 1.50977,-0.62891 5.68554,-2.361327 5.68555,-2.363281 1.94336,-0.798828 1.94336,-0.800782 3.88476,-1.609375 3.88672,-1.607421 2.375,-0.984376 2.375,-0.984374 3.45313,-1.4375 3.45508,-1.435547 3.88476,-1.607422 3.88672,-1.605469 1.94336,-0.798828 1.94336,-0.798828 1.6543,-0.69336 1.65625,-0.691406 3.02148,-1.251953 3.02344,-1.25 1.05469,-0.429687 1.05273,-0.429688 2.6875,1.111328 2.68945,1.111328 3.45313,1.439453 3.45508,1.4375 3.23828,1.335938 3.23828,1.333984 6.83594,2.835938 6.83593,2.835937 4.17383,1.728516 4.17383,1.730469 1.15234,0.470703 1.15039,0.470703 4.2461,1.765625 4.24609,1.763672 1.65625,0.68164 1.6543,0.681648 4.24609,1.75976 4.2461,1.76172 1.15039,0.47461 1.15234,0.47656 1.72656,0.71289 1.72657,0.71289 7.19726,2.99024 7.19531,2.99023 1.65625,0.67969 1.6543,0.68164 4.5332,1.87695 4.53516,1.87696 5.10938,2.11132 5.10937,2.11133 2.58984,1.08594 2.5918,1.08398 1.15039,0.46875 1.15234,0.4668 6.33204,2.62305 6.33203,2.62109 1.15234,0.48242 1.15039,0.48242 3.02344,1.24805 3.02148,1.2461 1.65625,0.68945 1.6543,0.68945 3.81445,1.57617 3.81446,1.57618 0.79492,0.32226 0.79492,0.32422 1.35156,3.26172 1.34961,3.25976 1.76172,4.2461 1.76172,4.24609 1.29297,3.11524 c 3.31969,0.6813 6.54222,1.47544 9.66601,2.35351 l -1.07421,-2.58984 -2.98633,-7.19531 -0.69922,-1.72852 -0.70117,-1.72656 v -0.10352 -0.10351 l 0.25195,0.0918 0.25195,0.0937 6.03125,2.49219 6.03125,2.49023 0.0449,0.0449 0.0449,0.0449 1.80859,4.35937 1.81055,4.35938 1.47656,3.55469 c 4.62413,1.75032 8.93399,3.61679 12.89648,5.53515 l -17.76757,-17.78711 0.14257,0.0742 0.14454,0.0742 5.46875,2.26563 5.4707,2.26562 3.23828,1.33203 3.23828,1.33203 3.52539,1.4668 3.52735,1.46484 1.65429,0.69922 1.6543,0.69727 0.7207,0.2832 0.71875,0.28516 1.72852,0.71875 1.72656,0.71875 1.625,0.66601 1.62695,0.66602 2.1875,0.91797 2.1875,0.91797 4.60743,1.90234 4.60546,1.90234 8.7793,3.63868 8.7793,3.64062 4.74219,1.96289 4.74414,1.96289 0.0371,0.0371 0.0371,0.0371 -1.55468,3.73633 -1.55664,3.73437 -1.16407,2.80664 -1.16406,2.80664 -2.83203,6.83594 -2.67187,6.45313 c 1.58949,2.4927 3.11357,5.07568 4.53125,7.79883 0.57494,1.10438 1.12837,2.22975 1.66992,3.36718 l 0.76562,-1.85742 0.75196,-1.80078 0.75195,-1.79883 1.18555,-2.8789 1.18359,-2.87696 0.55469,-1.29687 0.55468,-1.29492 0.004,12.73828 0.004,12.73632 -0.56641,1.36329 c 0.0922,0.28255 0.18123,0.56918 0.27149,0.85351 l 0.0703,-0.3457 0.20703,-1.00586 v 2.23437 c 3.60216,11.67745 5.61523,24.83607 5.61523,39.7168 0,15.31914 -2.05091,28.81901 -5.5957,40.73438 l 0.006,22.88281 h -0.0449 -0.043 l -0.98047,-5.14453 -0.98047,-5.14453 -0.60547,-3.16797 -0.19336,-1.01953 c -0.56938,1.4946 -1.16346,2.96106 -1.78125,4.40039 l 1.04492,2.52148 1.79297,4.31641 -0.002,0.002 1.79297,4.31641 -0.0371,12.73828 -0.0391,12.73633 -0.3125,-0.79102 -0.3125,-0.79101 -2.47656,-5.97266 -2.47461,-5.97266 -0.68555,-1.65625 -0.68555,-1.65429 -0.86133,-2.0879 -0.85937,-2.08593 -1.66797,-4.03321 c -2.06343,3.58594 -4.27712,6.97487 -6.62305,10.16797 l 1.03516,2.5 2.32422,5.61328 2.32422,5.61329 2,4.82031 2,4.82226 3.1582,7.62696 3.16016,7.6289 -0.16797,0.0937 -0.16797,0.0918 -5.46875,2.26562 -5.4707,2.26563 -4.10157,1.69336 -4.10156,1.69141 -3.52539,1.46679 -3.52734,1.4668 -2.375,0.97851 -2.375,0.97852 -5.10938,2.11719 -5.10937,2.11719 -3.23829,1.3457 -3.23828,1.3457 -2.05078,0.8457 c 1.67905,1.89534 3.86145,4.65009 5.97656,8.35547 l 0.53516,-0.22265 1.58399,-0.6543 0.93554,-0.39062 0.93555,-0.39063 1.58398,-0.66406 1.58204,-0.66602 8.92382,-3.68945 8.92383,-3.69141 1.35742,-0.55859 1.35547,-0.55859 0.041,0.041 0.0391,0.0391 -8.91211,8.91602 -8.91211,8.91406 -1.04883,0.45508 -1.04687,0.45508 -2.87891,1.18359 -0.14648,0.0606 0.63281,1.0664 1.09766,-0.74023 1.07812,-0.74609 1.08008,-0.7461 0.2168,-0.11328 0.21484,-0.11328 -3.23047,3.23047 4.89258,8.24805 21.22851,-21.22852 h -0.16992 -0.16797 l -2.71093,1.12891 -2.70899,1.1289 -5.32617,2.20313 -5.32422,2.20117 -2.36523,0.98437 -2.36524,0.98438 -0.043,-0.043 -0.043,-0.043 1.97656,-1.33008 1.97656,-1.33203 2.80664,-1.90039 2.80664,-1.90039 2.51758,-1.71484 2.51953,-1.71289 1.50977,-1.03321 1.51172,-1.0332 5.46875,-3.7168 5.4707,-3.71679 3.52539,-2.39453 3.52539,-2.39453 1.98047,-1.3379 1.97851,-1.33984 v -0.0391 -0.0371 l -1.36914,-3.2832 -1.36914,-3.28125 0.10938,-0.0977 0.10937,-0.0957 2.44727,-1.00586 2.44726,-1.00782 0.69922,-0.27343 0.69727,-0.27344 0.0684,-0.16797 0.0684,-0.16602 -0.81055,-4.22265 -0.80859,-4.22266 -0.56446,-2.94922 -0.56445,-2.95117 -1.80664,-9.5 -1.80664,-9.49804 -0.56641,-2.95118 -0.5664,-2.94922 -0.51563,-2.73632 -0.51758,-2.73438 -0.21484,-0.98828 -0.21484,-0.99023 0.0488,-0.0488 0.0469,-0.0488 0.38477,0.89453 0.38476,0.89453 3.15234,7.62695 3.1543,7.62891 0.75977,1.87109 0.75781,1.8711 0.12305,0.13672 0.12304,0.13672 -0.008,-75.76954 -0.008,-75.76953 -0.19336,0.35938 -0.19336,0.35937 -1.16406,2.80664 -1.16407,2.80664 -3.10937,7.48438 -3.10742,7.48438 0.0879,-0.50391 0.0879,-0.50391 0.79297,-4.17383 0.79297,-4.17382 0.77929,-4.0293 0.77735,-4.03125 0.50195,-2.66211 0.5,-2.66211 2.31836,-12.15039 2.31641,-12.15039 -0.0645,-0.16602 -0.0625,-0.16601 -0.77148,-0.29297 -0.76953,-0.29102 -2.375,-0.97656 -2.375,-0.97461 -0.10938,-0.0996 -0.10937,-0.0977 1.37109,-3.29102 1.37305,-3.29101 -0.11133,-0.0938 -0.11133,-0.0937 -1.36719,-0.9336 -1.36718,-0.93555 -2.23047,-1.51367 -2.23047,-1.51562 -9.2832,-6.3086 -9.28321,-6.30859 -3.59765,-2.44531 -3.59961,-2.44532 -2.87891,-1.9414 -2.87695,-1.94141 -0.36133,-0.28711 -0.35938,-0.28711 0.2168,0.0762 0.21484,0.0781 3.88672,1.61523 3.88477,1.61329 3.74219,1.55273 3.74218,1.55078 2.70508,1.11524 2.70313,1.11523 0.0605,-0.0605 0.0606,-0.0605 -53.5332,-53.53321 -53.53516,-53.535154 v 0.162109 0.162109 l 1.42578,3.435547 1.42383,3.435547 2.59375,6.261719 2.5918,6.259765 0.30273,0.705078 0.30469,0.703126 -0.0449,0.04492 -0.0449,0.04492 -1.48047,-2.1875 -1.48047,-2.1875 -2.83399,-4.173828 -2.83593,-4.175781 -2.00196,-2.949219 -2.0039,-2.951172 -0.75782,-1.103515 -0.75781,-1.105469 -3.98828,-5.875 -3.98828,-5.876953 -2.29687,-3.38086 -2.29688,-3.382812 -0.0996,-0.111328 -0.10156,-0.109375 -3.15625,1.3125 -3.15625,1.3125 -0.19531,0.02148 -0.19336,0.01953 -1.33985,-3.234375 -1.34179,-3.232421 -0.14844,-0.05078 z m -47.75586,9.228516 12.70117,0.03711 12.70117,0.03711 -5.3457,2.216797 -5.34765,2.216797 -3.02344,1.253906 -3.02149,1.251954 -2.80664,1.162109 -2.80664,1.162109 -2.66406,1.109375 -2.66211,1.109375 -1.15039,0.464844 -1.15234,0.464844 -2.66211,1.101562 -2.66211,1.09961 -0.64844,0.28125 -0.64844,0.28125 -2.23047,0.927734 -2.23047,0.925781 -4.5332,1.871094 -4.53515,1.871094 -7.19532,2.982422 -7.19726,2.982422 -0.73438,0.304687 -0.73633,0.304688 0.002,0.144531 0.004,0.142578 3.75586,1.556641 3.75586,1.55664 2.375,0.996094 2.3711,0.994141 -25.40235,-0.002 -25.40429,-0.002 4.67773,-1.943359 4.67773,-1.943359 1.48633,-0.619141 1.48438,-0.617187 0.002,-0.123047 0.002,-0.121094 -2.5664,-1.064453 -2.56446,-1.066406 -1.15234,-0.472657 -1.15039,-0.474609 -3.23828,-1.332031 -3.23828,-1.332032 -2.66211,-1.115234 -2.66406,-1.117187 -3.38086,-1.396485 -3.38282,-1.396484 -2.44726,-1.011719 -2.44727,-1.013672 -1.65429,-0.685547 -1.65625,-0.6875 -2.44532,-1.013672 -2.44726,-1.015625 -2.66211,-1.107422 -2.66406,-1.107421 -0.79102,-0.324219 -0.79102,-0.322266 -2.08789,-0.863281 -2.08593,-0.861328 -6.6211,-2.740235 -6.62109,-2.738281 -1.36719,-0.582031 -1.36719,-0.582031 12.69336,-0.0078 12.69141,-0.0059 1.05273,0.416015 1.05274,0.416016 2.08789,0.865234 2.08594,0.867188 3.02343,1.253906 3.02149,1.253906 3.74219,1.546876 3.74218,1.546874 4.2461,1.763672 4.24609,1.761719 1.94336,0.789063 1.94141,0.789062 0.57617,0.257813 0.57617,0.255859 2.44727,1.009766 2.44531,1.009765 6.83789,2.839844 6.83594,2.837891 0.85547,0.341796 0.85351,0.341797 h 0.25391 0.25195 l 3.13867,-1.30664 3.13867,-1.306641 3.31055,-1.367187 3.31055,-1.365235 1.15039,-0.482422 1.15234,-0.482422 3.88477,-1.609374 3.88672,-1.609376 2.01562,-0.828124 2.01367,-0.830079 4.2461,-1.765625 4.24609,-1.763672 0.79102,-0.322265 0.79297,-0.320313 3.74023,-1.550781 3.74219,-1.552734 0.79297,-0.324219 0.79101,-0.322266 2.58984,-1.080078 2.5918,-1.080078 1.06446,-0.447266 z m -106.47656,0.02734 h 52.82031 52.82031 l -3.16601,0.615234 -3.16602,0.613281 -4.67773,0.892578 -4.67774,0.894531 -9.78711,1.865235 -9.78711,1.863281 -2.94921,0.564453 -2.95118,0.564453 -5.70898,1.087891 v 0.0039 l -5.71094,1.087891 -0.47851,-0.01563 -0.47852,-0.01367 -7.3418,-1.416016 -7.33984,-1.414062 -2.375,-0.455078 -2.375,-0.453125 -1.00586,-0.195313 -1.00781,-0.195312 -2.73438,-0.517578 -2.73632,-0.519532 -3.3086,-0.632812 -3.31055,-0.634766 -3.02343,-0.576172 -3.02149,-0.576171 -6.11718,-1.164063 -6.11719,-1.164063 -0.14453,-0.05469 z m -50.25781,1.003906 0.66211,0.267578 0.66015,0.267578 1.43945,0.587891 1.43946,0.58789 0.28711,0.134766 0.28711,0.136719 2.59179,1.066406 2.58985,1.064453 3.31054,1.373047 3.31055,1.371094 3.38281,1.40039 3.38282,1.400391 3.02148,1.259765 3.02344,1.259766 4.10156,1.69336 4.10156,1.693359 1.6543,0.681641 1.65625,0.68164 8.05859,3.34375 8.06055,3.34375 2.01563,0.830078 2.01367,0.832032 3.02343,1.24414 3.02149,1.244141 0.28906,0.136719 0.28711,0.136718 3.52734,1.451172 3.5254,1.453125 0.92578,0.384766 0.92382,0.386719 -29.4746,0.03516 -29.47657,0.03711 -2.10547,-0.492187 -2.10546,-0.490235 -0.3711,-0.0957 -0.37304,-0.09375 -1.39258,2.277344 -1.39258,2.277344 -20.79688,20.796875 -20.79492,20.79688 v -0.11133 -0.11133 l 3.10938,-7.51758 3.10742,-7.515625 1.08008,-2.591797 1.08008,-2.589843 0.68359,-1.65625 0.68164,-1.654297 0.94922,-2.302735 0.95117,-2.302734 2.15039,-5.181641 2.15039,-5.18164 2.11328,-5.109375 2.11524,-5.109375 1.84765,-4.460938 1.84766,-4.46289 2.32617,-5.613282 2.32422,-5.613281 1.5957,-3.83789 z m 205.98632,0.0039 0.0899,0.166016 0.0918,0.167968 1.36914,3.310547 1.36718,3.310547 2.6211,6.332031 2.62109,6.333985 1.79102,4.316406 1.78906,4.318359 0.42187,1.007813 0.42188,1.007812 1.42578,3.453125 1.42578,3.455079 2.11719,5.109374 2.11719,5.109376 0.62695,1.511718 0.62695,1.509766 1.9375,4.677734 1.9375,4.677735 1.90235,4.605464 1.90234,4.60547 0.69141,1.65625 0.68945,1.65429 0.88477,2.13672 0.88671,2.13672 -0.0527,0.0527 -0.0527,0.0527 -20.81445,-20.828119 -20.8164,-20.828125 -0.82227,-1.367187 -0.82227,-1.367188 -0.50195,-0.826172 -0.5,-0.828125 h -0.041 -0.041 l -2.44336,0.576172 -2.44141,0.576172 -29.46875,-0.03711 -29.46875,-0.03516 3.36329,-1.398438 3.36328,-1.396484 3.52539,-1.458985 3.52734,-1.457031 5.03711,-2.087891 5.03711,-2.089843 2.375,-0.984375 2.375,-0.984375 2.30273,-0.960938 2.30274,-0.958984 1.15039,-0.472656 1.15234,-0.472657 3.38282,-1.40039 3.38086,-1.402344 2.95117,-1.220703 2.95117,-1.220703 0.79101,-0.324219 0.79102,-0.322266 3.38281,-1.40625 3.38282,-1.404297 6.76367,-2.800781 6.76562,-2.800781 2.44531,-1.015625 2.44727,-1.015625 0.79102,-0.328125 z m 17.5918,16.166016 9.00586,8.984375 9.00391,8.986328 0.53711,1.304687 0.53711,1.306641 1.63867,3.957031 1.64062,3.958984 0.625,1.511719 0.62696,1.509766 1.22265,2.951172 1.2207,2.951172 2.98243,7.195312 2.98047,7.197272 1.58203,3.8125 1.58007,3.81445 0.86133,2.08789 0.86133,2.08594 0.54297,1.29492 0.54297,1.29688 1.1289,2.74218 1.13086,2.74219 1.44532,0.59766 1.44726,0.59961 3.09375,1.28125 3.09571,1.28124 2.87695,1.18945 2.87891,1.18945 6.40429,2.65235 6.40625,2.65429 3.59766,1.49024 3.59765,1.49023 6.47657,2.68361 6.47656,2.68359 2.96875,1.22852 2.9668,1.22851 8.90625,8.91602 8.90625,8.91601 0.0605,0.0645 0.0606,0.0645 -0.13281,-0.01 -0.13281,-0.008 -3.5254,-1.48047 -3.52539,-1.48242 -1.94336,-0.80273 -1.94335,-0.80274 -4.39063,-1.8164 -4.38867,-1.81641 -2.375,-0.98633 -2.375,-0.98828 -3.02149,-1.24805 -3.02343,-1.24804 -1.15039,-0.48243 -1.15235,-0.48242 -2.23047,-0.92578 -2.23047,-0.92578 -2.375,-0.97266 -2.375,-0.9707 -3.38281,-1.4082 -3.38281,-1.40821 -3.38086,-1.39453 -3.38281,-1.39648 -4.17383,-1.72852 -4.17383,-1.72851 -0.98437,-0.42774 -0.98438,-0.42578 -0.0684,0.0664 -0.0684,0.0684 0.66602,1.63476 0.66601,1.63477 0.19532,0.43164 0.19336,0.43164 0.64648,1.58203 0.64453,1.58399 1.0957,2.6621 1.09766,2.66407 -18.06641,-18.0625 -18.06445,-18.0625 v -0.0293 -0.0273 l 1.69922,0.69726 1.70117,0.69922 2.58203,1.07617 2.58203,1.07422 1.99024,0.82227 1.99023,0.82031 0.0625,-0.0606 0.0605,-0.0625 -0.44531,-1.0664 -0.44532,-1.06641 -0.4746,-1.15039 -0.47266,-1.15234 -3.48633,-8.41993 -3.48437,-8.419923 -1.22266,-2.949218 -1.22461,-2.951172 -0.83594,-2.015625 -0.83789,-2.013672 -1.2539,-3.023437 -1.25196,-3.021485 -1.69726,-4.101562 -1.69532,-4.103516 -1.25585,-3.021484 -1.25391,-3.021485 -2.94727,-7.125 -2.94921,-7.125 -0.0762,-0.214844 z m -241.26758,0.08398 0.041,0.04102 0.041,0.03906 -2.53125,6.107422 -2.53125,6.105469 -2.19921,5.326172 -2.20118,5.326171 -1.22461,2.949219 -1.22656,2.951172 -2.46875,5.972656 -2.46875,5.972657 -0.48242,1.152343 -0.48242,1.150391 -0.72266,1.726562 -0.72265,1.728515 -1.39649,3.38086 -1.39844,3.38281 -0.32422,0.79102 -0.32421,0.79296 -1.25391,3.02149 -1.25195,3.02344 -0.47266,1.15039 -0.47461,1.15234 -0.59375,1.42383 -0.5957,1.42578 0.0644,0.0644 0.0664,0.0645 2.34765,-0.96875 2.34766,-0.96875 2.23047,-0.93555 2.23242,-0.93359 1.5625,-0.63672 1.56445,-0.63672 0.0488,0.0488 0.0508,0.0488 -17.91406,17.91407 -17.91211,17.91211 v -0.12891 -0.12891 l 1.34961,-3.2539 1.35156,-3.25196 1.18164,-2.85351 1.18164,-2.85352 -0.0683,-0.0684 -0.0684,-0.0684 -3.07618,1.28711 -3.07617,1.28516 -2.8789,1.1875 -2.87696,1.18555 -1.65625,0.68554 -1.65429,0.6836 -5.972661,2.48047 -5.974609,2.48046 -2.013672,0.82618 -2.015625,0.82617 -5.972656,2.47851 -5.972656,2.48047 -2.050782,0.84961 -2.050781,0.85156 -2.050781,0.84961 -2.050781,0.85157 -7.171875,2.96484 -7.171875,2.96289 -0.3125,0.1582 -0.3125,0.15821 9.058593,-9.07422 9.058594,-9.07227 3.894531,-1.60937 3.894532,-1.60742 3.814453,-1.58204 3.814453,-1.58007 2.876953,-1.19336 2.878906,-1.19141 2.878907,-1.18555 2.878906,-1.18554 0.43164,-0.19531 0.431641,-0.19336 5.541015,-2.28711 5.54102,-2.28711 7.05273,-2.91407 7.05273,-2.91406 0.40235,-0.20703 0.4043,-0.20898 0.0859,-0.24414 0.0859,-0.24414 1.72266,-4.17383 1.72265,-4.17383 0.90039,-2.1582 0.89844,-2.16016 0.82813,-2.01367 0.82812,-2.01563 0.39844,-0.93554 0.39648,-0.93555 1.54297,-3.74219 1.54492,-3.742183 0.39258,-0.935547 0.39274,-0.9354 0.44922,-1.078125 0.44922,-1.080078 2.10742,-5.109375 2.10547,-5.109375 1.58398,-3.814453 1.58594,-3.814453 1.07422,-2.589844 1.07422,-2.591797 8.94336,-8.953125 z m 146.48828,15.654297 1.89258,0.794922 1.89258,0.794922 2.58984,1.074218 2.58985,1.074219 9.64453,3.992188 9.64258,3.992187 1.65429,0.679688 1.65625,0.679687 3.52539,1.472656 3.52735,1.472657 1.43945,0.572265 1.4375,0.572266 0.43164,0.195312 0.4336,0.19336 1.36718,0.572265 1.36719,0.574219 2.08594,0.857422 2.08789,0.859375 5.82812,2.414063 5.83008,2.414062 3.45313,1.431641 3.45508,1.433593 1.15039,0.472657 1.15234,0.474609 3.02148,1.253906 3.02344,1.253903 2.375,0.97852 2.375,0.97851 3.52539,1.4668 3.52539,1.4668 1.15235,0.47461 1.15039,0.47461 4.24609,1.75976 4.24609,1.75977 4.10157,1.6914 4.10351,1.69141 1.10157,0.46484 1.10156,0.46289 0.89844,2.18165 0.90039,2.17968 0.68359,1.65625 0.68359,1.6543 1.02344,2.44141 1.02344,2.43945 -0.0391,0.0879 -0.0371,0.0898 -4.9668,-2.06836 -4.96484,-2.0664 -2.30274,-0.94727 -2.30273,-0.94726 -1.6543,-0.69141 -1.65625,-0.69336 -3.81445,-1.57617 -3.81446,-1.57617 -3.02148,-1.25782 -3.02344,-1.25976 -2.01367,-0.83008 -2.01562,-0.83203 -2.15821,-0.89063 -2.16015,-0.89257 -1.15039,-0.47266 -1.15235,-0.47266 -6.47656,-2.68945 -6.47656,-2.6875 -3.16602,-1.30664 -3.16601,-1.30664 -3.45508,-1.43164 -3.45313,-1.431641 -1.15234,-0.480469 -1.15039,-0.480468 -1.36719,-0.564453 -1.36719,-0.566407 -1.58398,-0.65625 -1.58399,-0.65625 -5.90039,-2.447265 -5.90039,-2.447266 -4.67773,-1.9375 -4.67774,-1.939453 -2.01562,-0.820313 -2.01367,-0.820312 -0.93555,-0.402344 -0.93555,-0.402344 -4.96679,-2.048828 -4.96485,-2.046875 -1.65429,-0.695312 -1.65625,-0.695313 -4.75,-1.964844 -4.74805,-1.966796 -0.25195,-0.07422 -0.25196,-0.07422 v -0.09961 -0.101563 l 0.82813,-0.33789 0.82617,-0.337891 3.0957,-1.279297 3.09375,-1.28125 2.08594,-0.859375 2.08789,-0.859375 0.26758,-0.15039 z m -51.67773,0.0098 2.11328,0.884766 2.11133,0.884766 1.6543,0.683594 1.65625,0.68164 2.55468,1.060547 2.55469,1.060547 -0.002,0.07617 -0.002,0.07813 -2.76953,1.134765 -2.76757,1.134766 -2.16016,0.896484 -2.1582,0.898438 -3.66993,1.519531 -3.66992,1.521485 -4.01562,1.671874 -4.01563,1.669922 -2.24609,0.916016 -2.24414,0.916016 -2.30274,0.964843 -2.30468,0.964844 -1.15039,0.466797 -1.15235,0.46875 -4.74805,1.974609 -4.75,1.976563 -4.5332,1.876953 -4.53515,1.876953 -3.23829,1.337891 -3.23828,1.337892 -4.74804,1.9668 -4.75,1.96679 -2.95118,1.22461 -2.95117,1.22656 -2.51758,1.04493 -2.51953,1.04492 -2.8789,1.18555 -2.87696,1.1875 -5.10937,2.12109 -5.10938,2.12305 -5.75781,2.38476 -5.75781,2.38477 -5.61133,2.32422 -5.61328,2.32421 -2.80664,1.16016 -2.80664,1.16016 -0.25196,0.1289 -0.25195,0.13086 v -0.12695 -0.125 l 1.85352,-4.44922 1.85351,-4.44922 0.7461,-1.81836 0.74609,-1.82031 2.61719,-1.08594 2.61914,-1.08789 8.92187,-3.69531 8.92383,-3.69336 1.15235,-0.4707 1.15039,-0.47071 1.79882,-0.74609 1.80079,-0.74805 1.65429,-0.69336 1.6543,-0.69335 4.53516,-1.873053 4.5332,-1.875 3.81445,-1.580078 3.8125,-1.580078 3.38281,-1.398438 3.38282,-1.398437 3.74218,-1.554688 3.74219,-1.552734 2.94922,-1.222656 2.95117,-1.220703 2.01563,-0.820313 2.01367,-0.822265 0.93555,-0.398438 0.93554,-0.398438 1.22461,-0.511718 1.22266,-0.511719 3.38281,-1.394531 3.38281,-1.396485 1.29493,-0.541015 1.29492,-0.541016 4.60547,-1.90625 4.60546,-1.904297 1.65626,-0.689453 1.65429,-0.6875 4.2461,-1.75 4.24609,-1.75 0.62305,-0.287109 z m -113.36328,2.890626 h 0.0469 0.0469 l -0.92578,1.332031 -0.92383,1.330078 -1.22266,1.798828 -1.22265,1.800781 -6.73828,9.929688 -6.73633,9.93164 -0.7461,1.078125 -0.74414,1.080085 -1.5625,2.30273 -1.5625,2.30274 -2.88086,4.24609 -2.88281,4.24609 -1.0293,1.51172 -1.02734,1.50977 -1.78516,1.23437 -1.7832,1.23438 -3.48633,2.36328 -3.48437,2.36523 -4.9336,3.35547 -4.935542,3.35547 -7.84375,5.33203 -7.84375,5.33203 -3.09375,2.09571 -3.09375,2.09375 -1.152344,0.78711 -1.152344,0.78906 37.34961,-37.36914 z m 278.53906,0.07227 37.29297,37.277346 37.29102,37.27539 v 0.0371 h 0.004 v 0.0351 l -0.0371,-0.01 -0.0391,-0.01 -4.5332,-3.09961 -4.53321,-3.10156 -2.375,-1.61523 -2.375,-1.61329 -2.23047,-1.51757 -2.23046,-1.51563 -2.44727,-1.66406 -2.44727,-1.66406 -3.95703,-2.6836 -3.95898,-2.68554 -3.88477,-2.64063 -3.88672,-2.64062 -1.55273,-1.05274 -1.55273,-1.05469 -1.23828,-0.86328 -1.24024,-0.86328 -2.15234,-3.16797 -2.1543,-3.16601 -2.04688,-3.02149 -2.04882,-3.02343 -4.60157,-6.763676 -4.60156,-6.765625 -2.0039,-2.949219 -2.00391,-2.951171 -1.32227,-1.94336 -1.32226,-1.943359 -2.56641,-3.779297 -2.5664,-3.779297 -0.3379,-0.539063 z M 127.11523,145.80859 v 0.16602 0.16601 l -0.93945,2.25977 -0.93945,2.25977 -0.2793,0.64843 -0.2793,0.64649 -1.06835,2.5918 -1.07032,2.58984 -1.57812,3.81445 -1.58008,3.81445 -1.54688,3.74219 -1.54687,3.74219 -1.37109,3.30859 -1.37305,3.31055 -1.64649,3.95898 -1.64843,3.95704 -1.875,4.53515 -1.87305,4.53321 -0.47656,1.15039 -0.47656,1.15234 -0.7129,1.72656 -0.71484,1.72657 -1.75976,4.24609 -1.75782,4.24609 -1.728513,4.17383 -1.728516,4.17383 -1.36914,3.31055 -1.369141,3.31054 -0.539062,1.29492 -0.539063,1.29493 -2.263672,5.4707 -2.263672,5.46875 -1.222656,2.94922 -1.220703,2.95117 -1.046875,2.51953 -1.044922,2.51758 -1.191406,2.87891 -1.19336,2.8789 -0.896484,2.1582 -0.898437,2.16016 -1.546876,3.74219 -1.548828,3.74023 -0.892578,2.16016 -0.890625,2.1582 -0.277343,0.6836 v 0.002 l -0.275391,0.68164 h -0.07813 -0.08008 l -2.611328,-6.32031 -2.611328,-6.32032 1.214843,-2.92578 1.212891,-2.92773 0.423828,-1.00781 0.423828,-1.00782 3.009766,-7.26757 3.009765,-7.26758 2.414063,-5.83008 2.412109,-5.82813 1.580078,-3.81445 1.580079,-3.81445 0.839843,-2.01563 0.839844,-2.01367 0.824219,-2.01562 0.824218,-2.01368 1.359376,-3.24023 1.359374,-3.23828 0.402344,-1.00586 0.400391,-1.00781 1.611328,-3.88672 1.613281,-3.88477 1.044922,-2.51953 1.046875,-2.51953 1.191406,-2.87695 1.189448,-2.87891 1.08008,-2.5918 1.08008,-2.58984 0.64062,-1.58398 0.64063,-1.58203 0.40234,-0.93555 0.40039,-0.93555 0.79883,-1.94336 0.79883,-1.94336 2.32617,-5.61328 2.32617,-5.61328 0.54297,-1.29492 0.54102,-1.29492 0.90234,-2.19532 0.90235,-2.19531 h 0.0293 0.0293 l 4.37891,-1.81445 4.3789,-1.81446 1.72852,-0.71484 1.72656,-0.71484 0.17969,-0.0762 z M 114.23438,151.16211 93.367188,172.0293 72.5,192.89648 l -2.269531,1.39454 -2.269531,1.39257 v 0.0371 0.0391 l 0.576171,2.39843 0.576172,2.39844 -0.03711,29.59961 -0.03516,29.59961 -0.03711,-0.17383 -0.03516,-0.17383 -1.78125,-4.28711 -1.78125,-4.28711 -1.910156,-4.60742 -1.910156,-4.60547 -0.320313,-0.79101 -0.320313,-0.79102 -1.259765,-3.02344 -1.259766,-3.02148 -0.46875,-1.15234 -0.466797,-1.15039 -1.402343,-3.38282 -1.402344,-3.38281 -0.390625,-0.93555 -0.390625,-0.93554 -1.189453,-2.87891 -1.189453,-2.87695 -1.556641,-3.74219 -1.554688,-3.74219 -2.115234,-5.10937 -2.113281,-5.10938 -0.6875,-1.65625 -0.685547,-1.65429 -1.546875,-3.74219 -1.544922,-3.74219 -0.908203,-2.1582 -0.908203,-2.16016 -0.296875,-0.75586 -0.298828,-0.7539 h 0.04102 0.03906 l 1.361328,-0.56055 1.361328,-0.55859 5.46875,-2.26758 5.470703,-2.26758 0.791016,-0.32422 0.791015,-0.32422 3.310547,-1.36914 3.310547,-1.36914 4.677735,-1.93945 4.677734,-1.94141 7.195313,-2.98047 7.197265,-2.98047 4.173828,-1.72851 4.173828,-1.72852 2.951172,-1.22461 2.949219,-1.22461 5.398437,-2.23242 5.39648,-2.23047 1.15235,-0.47656 1.15039,-0.47852 1.94336,-0.80078 z m 55.86523,14.85742 v 406.08789 l 123,-0.0508 -0.0273,-158.97461 h 33.02734 c 6.755,0 9.66801,1.969 16.5,7.5 8.19001,6.63103 21.5,29.5 21.5,29.5 l 65,122.0625 139,-0.0625 -86,-145 c 0,0 -2.622,-5.788 -8,-11.5 -5.48999,-5.832 -13.10101,-10.27401 -17.5,-12.5 -12.67801,-6.41503 -34.5,-13 -34.5,-13 0,0 107.5,-7.96699 107.5,-115 0,-107.033 -112.5,-109.0625 -112.5,-109.0625 z m -152.376954,22.13281 -5.429687,2.25196 -5.4277346,2.25 -0.9355469,0.38672 -0.9355469,0.38476 -0.109375,0.63867 -0.1074218,0.63672 L 4.2011719,206 l -0.5742188,11.29883 -0.076172,1.15039 -0.076172,1.15234 -0.3574219,6.98047 -0.3574219,6.98047 -0.140625,2.66211 -0.140625,2.66211 -0.076172,1.36719 -0.078125,1.36718 -0.2089844,4.03125 -0.2089844,4.0293 -0.078125,1.29492 -0.076172,1.29492 -0.2871093,5.54102 -0.2851563,5.54102 -0.50390625,9.5 -0.50585937,9.5 L 0.0859375,284.58398 0,286.81445 l 0.51757812,9.57032 0.51953128,9.57226 0.5722656,10.9375 0.5722656,10.93945 0.1503906,2.58985 0.1484376,2.58984 0.6445312,12.37891 0.6445312,12.37695 0.083984,1.43945 0.083984,1.43946 0.46875,8.89258 0.46875,8.89257 0.1308594,0.125 0.1308594,0.125 3.3105468,1.36914 3.3105462,1.36915 2.951172,1.22656 2.951172,1.22851 0.179688,0.008 0.179687,0.008 v -97.86914 -97.8711 h -0.148437 z m 536.279294,0 v 97.88672 l -0.002,97.88477 0.34961,-0.0879 0.34961,-0.0879 1.8457,-0.77735 1.8457,-0.77929 2.51758,-1.04297 2.51953,-1.04297 1.79883,-0.74805 1.79883,-0.74609 0.10352,-0.49024 0.10547,-0.48828 0.51562,-10.21875 0.51758,-10.21875 0.27344,-5.18164 0.27148,-5.18164 0.0801,-1.51172 0.0781,-1.51172 0.0762,-1.22265 0.0762,-1.22266 0.85937,-16.33594 0.85742,-16.33593 0.35743,-6.83594 0.35546,-6.83789 0.0742,-1.22266 0.0762,-1.22265 0.16407,-3.16797 0.16406,-3.16602 -0.0898,-1.94336 -0.0879,-1.9414 -0.42969,-8.13282 -0.42969,-8.13086 -0.082,-1.36718 -0.082,-1.36719 -0.56836,-10.93945 -0.56641,-10.9375 -0.14648,-2.5918 -0.14649,-2.58984 -0.28906,-5.61329 -0.28711,-5.61328 -0.0684,-1.08008 -0.0703,-1.07812 -0.0781,-1.51172 -0.0801,-1.51172 -0.29297,-5.61328 -0.29492,-5.61328 -0.39258,-7.51953 -0.39453,-7.52149 -0.13477,-0.1289 -0.13672,-0.12891 -6.30078,-2.60547 -6.30078,-2.60547 h -0.14063 z m -517.632809,18.7168 0.964843,2.33594 0.966797,2.33594 2.181641,5.2539 2.183594,5.25196 0.830078,2.01562 0.830078,2.01562 0.896484,2.15821 0.898438,2.1582 0.978515,2.375 0.976563,2.375 0.570312,1.36719 0.570313,1.36719 1.398437,3.38281 1.398438,3.38281 1.574219,3.81445 1.576171,3.8125 0.337891,0.79297 0.337891,0.79102 1.90039,4.60547 1.900391,4.60547 0.632813,1.51171 0.632812,1.51172 1.429688,3.45313 1.43164,3.45508 h 0.09961 0.09766 l 0.705078,-1.72657 0.703125,-1.72851 0.134765,-0.28711 0.134766,-0.28906 1.451172,-3.52539 1.449219,-3.52539 0.27539,-0.57618 0.277344,-0.57617 0.002,25.33203 0.0039,25.33008 -0.220703,-0.5039 -0.220703,-0.50391 -2.136718,-5.18164 -2.136719,-5.17969 -0.236328,-0.55859 -0.238282,-0.5586 -0.115234,0.125 -0.113281,0.12696 -0.972656,2.375 -0.970704,2.375 -2.298828,5.54101 -2.298828,5.54102 -1.517578,3.66992 -1.517578,3.66992 -0.896484,2.16016 -0.896485,2.1582 -1.042969,2.51953 -1.041015,2.51758 -0.482422,1.15234 -0.482422,1.15039 -1.966797,4.75 -1.964844,4.75 -1.224609,2.95118 -1.222656,2.94922 -1.367188,3.31054 -1.367187,3.31055 -0.56836,1.36719 -0.568359,1.36718 -0.767578,1.8711 -0.767578,1.87109 -0.535157,1.29492 -0.535156,1.29493 -0.05664,0.0605 -0.05664,0.0606 v -12.74024 -12.74218 l 0.777344,-1.85547 0.777343,-1.85547 1.542969,-3.74219 1.542969,-3.74219 0.925781,-2.23046 0.923828,-2.23047 0.634766,-1.51172 0.634766,-1.51172 2.322265,-5.61328 2.322266,-5.61133 2.566406,-6.18945 2.566406,-6.18946 1.394532,-3.38281 1.396484,-3.38086 0.970703,-2.32812 0.970703,-2.32813 -1.833984,-4.43554 -1.832031,-4.4375 -2.119141,-5.10938 -2.117188,-5.10938 -0.791015,-1.94335 -0.789063,-1.94336 -0.404296,-0.93555 -0.40625,-0.93555 -1.515626,-3.66992 -1.517578,-3.66992 -2.111328,-5.10938 -2.111328,-5.10937 -0.705078,-1.69141 -0.705078,-1.6914 -0.699219,-1.69141 -0.701172,-1.68945 -0.955078,-2.30664 -0.955078,-2.30664 0.03516,-12.69532 z m -0.04883,26.4043 0.05664,0.14453 0.05664,0.14453 0.65625,3.45312 0.65625,3.45508 0.507812,2.66211 0.509766,2.66211 0.861328,4.53516 0.861328,4.5332 0.648438,3.38281 0.646484,3.38086 0.259766,1.36719 0.259765,1.36719 2.058594,10.79492 2.058594,10.79492 -0.242188,1.36719 -0.242187,1.36719 -0.34375,1.79883 -0.345703,1.79882 -0.66211,3.45508 -0.664062,3.45313 -0.507813,2.66406 -0.507812,2.66211 -0.273438,1.43945 -0.273437,1.43945 -0.50586,2.66211 -0.503906,2.66211 -1.810547,9.5 -1.8125,9.49805 -0.697265,3.52734 -0.695313,3.52539 -0.0059,-52.74804 z m 257.816409,20.78515 74.46289,0.0469 -0.002,0.002 c 0,0 34.5,-1.86848 34.5,33.85352 0,35.01804 -34.5,35.125 -34.5,35.125 l -74.5,0.0215 z m -219.644533,45.20508 0.08203,0.002 0.08008,0.004 1.111328,2.69531 1.109375,2.69727 1.3125,3.16601 1.310547,3.16602 1.517578,3.66992 1.519531,3.66992 0.566406,1.36719 0.56836,1.36914 0.277344,0.60938 0.277343,0.60937 v 0.0703 0.0723 l 1.066407,2.55664 1.066406,2.55664 1.90039,4.60547 1.902344,4.60547 1.259766,3.02344 1.257812,3.02148 1.691407,4.10156 1.691406,4.10352 0.400391,0.93359 0.40039,0.93555 1.900391,4.60742 1.902341,4.60547 1.72656,4.17383 1.72657,4.17383 1.3457,3.23828 1.34375,3.23828 3.19336,7.69922 3.19336,7.70117 0.32226,0.79102 0.32032,0.79101 2.23437,5.39844 2.23242,5.39648 3.31055,7.98828 3.31055,7.98829 0.65234,1.58203 0.65235,1.58398 0.50976,1.1875 0.50977,1.1875 -0.10157,-0.004 -0.10351,-0.004 -2.80664,-1.16016 -2.80664,-1.16211 -1.36719,-0.56836 -1.36719,-0.5664 -2.11133,-0.87305 -2.11132,-0.87109 -1.10743,-2.68555 -1.10742,-2.68359 -4.89453,-11.80274 -4.89453,-11.80273 -0.68164,-1.6543 -0.67969,-1.65625 -2.978514,-7.19531 -2.978515,-7.19727 -0.28125,-0.60937 -0.28125,-0.60938 v -0.0684 -0.0684 l -1.0625,-2.56054 -1.064453,-2.56055 -2.447266,-5.90039 -2.449219,-5.90039 -0.675781,-1.65625 -0.675781,-1.6543 -0.19336,-0.43164 -0.191406,-0.43164 -1.396484,-3.38281 -1.394532,-3.38281 -1.189453,-2.87696 -1.1875,-2.8789 -2.123047,-5.10938 -2.123047,-5.10937 -0.714843,-1.72657 -0.714844,-1.72851 -0.976563,-2.375 -0.976562,-2.37305 -1.751953,-4.23437 -1.75,-4.23243 -0.142578,-0.26562 -0.140625,-0.26563 1.003906,-2.41015 1.005859,-2.41016 0.804688,-1.9414 0.806641,-1.94336 0.8125,-1.98047 z m -5.451172,13.16992 0.03711,29.53516 0.03516,29.53516 -0.576172,2.36718 -0.576171,2.36914 v 0.0566 0.0566 l 2.123046,1.2871 2.123047,1.28711 20.941407,20.9043 20.941398,20.90625 -0.14453,-0.004 -0.14258,-0.004 -2.51953,-1.05859 -2.51758,-1.05665 -4.10351,-1.68945 -4.10156,-1.68945 -2.158202,-0.89844 -2.160156,-0.89648 -2.804688,-1.16016 -2.806641,-1.16016 -6.765625,-2.80468 -6.763672,-2.80469 -6.333984,-2.6211 -6.332031,-2.61914 -4.605469,-1.91406 -4.605469,-1.91211 -8.779297,-3.63086 -8.779296,-3.6289 -0.169922,-0.0918 -0.167969,-0.0918 1.193359,-2.87695 1.195313,-2.87891 1.753906,-4.24609 1.751953,-4.24609 0.484375,-1.15039 0.482422,-1.15235 2.294922,-5.54101 2.292969,-5.54102 2.414062,-5.83008 2.41211,-5.82812 1.404296,-3.38282 1.404297,-3.38085 1.185547,-2.87891 1.185547,-2.87891 0.755859,-1.79883 0.757813,-1.79882 0.609375,-1.51172 0.611328,-1.51172 0.90625,-2.1582 0.904297,-2.16016 1.183594,-2.87695 1.183593,-2.87891 0.25,-0.57617 0.25,-0.57617 1.423829,-3.45313 z M 502.9082,367.6543 c -6.78564,6.04815 -13.99658,11.09116 -21.24414,15.23632 0,0 -4.11097,2.27626 -10.49609,5.20118 l -0.61524,1.48437 -2.61914,6.33399 -0.0332,0.0801 c 2.73404,1.6606 5.74758,3.69513 8.70703,6.06836 l 2.1211,-2.12109 20.79687,-20.79883 2.26563,-1.38867 2.26757,-1.38672 v -0.0664 -0.0645 l -0.57812,-2.39453 -0.57617,-2.39453 z m -475.666012,38.63086 -0.05469,0.0664 -0.05273,0.0664 -1.488282,3.59765 -1.486328,3.59766 -0.921875,2.23047 -0.921875,2.23242 -0.263672,0.6543 -0.265625,0.65625 1.085938,1.21484 1.085937,1.2168 0.736328,0.80078 0.736329,0.80078 0.505859,0.56641 0.505859,0.5664 2.003907,2.23047 2.001953,2.23047 1.089843,1.21485 1.087891,1.21484 1.310547,1.44726 1.308594,1.44922 3.298828,3.66993 3.298828,3.66992 2.509766,2.80664 2.509765,2.80664 0.08398,0.0703 0.08203,0.0723 1.867187,2.08789 1.865235,2.08594 0.154297,0.16406 0.154296,0.16406 3.660157,4.07422 3.660156,4.07226 2.662109,2.95118 2.66211,2.95117 0.648437,0.72656 0.648438,0.72852 2.589843,2.86718 2.589844,2.86914 1.369141,1.5293 1.367187,1.53125 1.222657,1.36524 1.222656,1.36718 2.591797,2.86524 2.589844,2.86523 1.220703,1.37305 1.220703,1.37305 0.146484,0.18359 0.146484,0.18359 4.890626,4.42188 4.890624,4.42187 3.601563,3.22657 3.601569,3.22461 0.79297,0.73242 0.79297,0.73242 1.15039,1.02539 1.14843,1.02539 6.76563,6.08008 6.76367,6.08203 1.93359,1.74609 1.9336,1.74414 0.72851,0.65821 0.73047,0.66015 3.09375,2.7793 3.0957,2.7793 3.37696,3.03906 3.3789,3.03711 2.30664,2.07226 2.30665,2.07032 0.57617,0.52734 0.57617,0.52539 3.74219,3.36133 3.74023,3.35937 1.22461,1.10743 1.22266,1.10937 0.5039,0.45117 0.50391,0.45117 0.14453,-0.0586 0.14258,-0.0566 4.39062,-1.81641 1.04297,-0.43164 V 537.42773 L 96.460938,475.50391 Z m 517.535152,0 -38.53711,38.53711 8.38868,14.14062 1.95117,-2.16992 4.38867,-4.87695 2.79492,-3.10547 2.79297,-3.10352 1.01953,-1.14648 1.02149,-1.14844 1.43945,-1.58594 1.44141,-1.58789 1.22265,-1.36719 1.22071,-1.36718 0.0781,-0.0723 0.0762,-0.0723 1.86328,-2.08594 1.86328,-2.08789 2.72266,-3.02149 2.7207,-3.02344 1.24024,-1.37109 1.23828,-1.37109 2.23047,-2.49219 2.23047,-2.49414 -0.043,-0.16406 -0.043,-0.16602 -0.9375,-2.30273 -0.9375,-2.30274 -1.67188,-4.03125 -1.66992,-4.02929 -0.0527,-0.0664 z m -472.570309,19.02148 0.216797,0.11524 0.214844,0.11718 1.294922,0.88672 1.296875,0.88477 2.085937,1.41601 2.087891,1.41602 1.509765,1.0293 1.511719,1.02929 2.302735,1.5625 2.302734,1.56055 1.728516,1.17578 1.726562,1.17383 5.181641,3.52539 5.181641,3.52344 2.30273,1.56054 2.30274,1.5586 1.29492,0.88867 1.29492,0.88672 4.26953,2.90429 4.26953,2.9043 0.75782,1.11328 0.75586,1.11524 1.67578,2.44726 1.67578,2.44532 2.0957,3.0957 2.09766,3.09375 3.0293,4.46289 3.03124,4.46094 0.59376,0.86328 0.5957,0.86328 2.61719,3.85156 2.61523,3.85156 2.66406,3.91797 2.66211,3.91797 1.68555,2.48633 1.6875,2.48437 h -0.0312 -0.0312 l -37.27734,-37.29492 z m 286.140629,38.90625 -0.73438,0.30273 -2.80664,1.16016 -2.80664,1.1582 -2.51758,1.04688 -2.51953,1.04492 -5.58984,2.32422 -5.58985,2.32422 -1.17382,0.47851 -1.17579,0.47852 -3.38281,1.4043 -3.38086,1.40429 -0.79297,0.32618 -0.79101,0.32617 -2.08594,0.86133 -2.08789,0.86132 -6.33203,2.61914 -6.33399,2.6211 -2.51757,1.05273 -0.92774,0.38672 0.002,8.70703 0.27735,-0.11523 0.28711,-0.13086 0.28906,-0.12891 3.02148,-1.24609 3.02344,-1.24414 1.29492,-0.53906 1.29493,-0.53711 4.10156,-1.69727 4.10351,-1.69727 2.51758,-1.04101 2.51953,-1.04102 2.51758,-1.04297 2.51953,-1.04492 1.6543,-0.68359 1.65625,-0.68359 4.75,-1.96875 4.74805,-1.97071 3.66992,-1.51758 3.67187,-1.51562 0.93555,-0.39453 0.93555,-0.39258 1.07812,-0.44922 1.08008,-0.44726 2.58984,-1.07227 2.5918,-1.07031 0.21289,-0.0879 z m 8.41601,15.80664 -1.95312,0.80664 -5.47071,2.25977 -4.60546,1.91406 -4.60547,1.91406 -3.74219,1.54102 -3.74219,1.54101 -0.93555,0.4043 -0.93554,0.40625 -0.71875,0.27734 -0.72071,0.2793 -4.17382,1.73438 -4.17383,1.73437 -7.69922,3.18555 -7.69922,3.1875 -1.87109,0.78515 -0.002,0.004 -1.87109,0.78516 -0.0703,-0.0156 -0.0723,-0.0137 -1.22461,-0.53516 -1.22265,-0.53711 -4.44922,-1.84179 v 3.13476 l 6.49414,0.0195 -6.10742,2.52735 -0.38672,0.16015 0.002,4.98047 4.16016,1.72657 5.90039,2.44921 9.2832,3.8418 9.2832,3.84375 2.375,0.98242 2.375,0.98243 6.47657,2.68554 6.47656,2.6836 2.80664,1.1582 2.80664,1.1582 0.93555,0.40235 0.93554,0.40234 2.66211,1.08203 2.66407,1.08203 0.64648,0.29297 0.64844,0.29492 -12.73633,0.004 -12.73438,0.004 -2.66406,-1.09961 -2.66601,-1.10157 -2.15821,-0.90039 -2.16015,-0.90234 -1.58203,-0.64844 -1.58399,-0.64844 -1.79883,-0.74218 -1.79882,-0.74219 -2.01563,-0.84375 -2.01367,-0.84375 -3.88672,-1.60742 -3.88672,-1.60742 -3.74219,-1.55274 -3.00781,-1.24805 0.002,7.9375 7.61133,1.45508 7.91602,1.51367 7.19726,1.3711 7.19532,1.37109 1.87109,0.34961 1.87109,0.34961 0.14453,0.0586 0.14454,0.0586 h -33.94922 l 0.002,9.23437 h 56.9668 l -0.13672,-0.12304 -0.13672,-0.1211 -3.0957,-1.26367 -3.09375,-1.26367 -6.4043,-2.65039 -6.40625,-2.65039 -0.90039,-0.37696 -0.90039,-0.375 0.0371,-0.0391 0.0391,-0.0371 18.0625,3.44141 18.06055,3.4414 2.95117,0.57032 2.95117,0.57031 2.41797,0.45898 2.41992,0.45899 0.11133,-0.12891 0.10937,-0.1289 1.27149,-3.09375 1.27148,-3.09375 0.0898,-0.10743 0.0898,-0.10547 3.29883,1.36524 3.29883,1.36328 0.0977,-0.10547 0.0977,-0.10742 0.99219,-1.46875 -6.34571,-11.91797 -0.0605,0.14649 -1.39453,3.38086 -1.39454,3.38281 -0.0957,0.17187 -0.0957,0.17188 -2.51758,-1.05274 -2.51758,-1.05273 -4.10156,-1.69141 -4.10156,-1.6914 -4.2461,-1.76172 -4.24609,-1.76367 -5.39648,-2.23633 -5.39649,-2.23828 -5.10937,-2.11328 -5.10938,-2.11329 -2.5918,-1.07421 -2.58984,-1.07422 -1.15234,-0.48047 -1.15039,-0.48242 -7.19727,-2.97266 -7.19531,-2.97266 -1.51172,-0.63281 -1.51172,-0.63281 -3.09375,-1.28125 -3.09375,-1.2793 -1.36914,-0.56055 -1.36719,-0.5625 29.50586,-0.0371 29.50391,-0.0371 2.43164,0.58593 2.43164,0.58594 0.0976,-0.11719 0.0996,-0.11523 1.31836,-2.16016 0.26758,-0.4375 z m -61.95117,73.99414 0.004,17.04492 3.86132,-0.20507 4.10352,-0.21875 4.10156,-0.21875 2.66211,-0.13868 2.66211,-0.14062 5.54102,-0.29297 5.54101,-0.29297 3.95899,-0.21094 3.95703,-0.21093 2.80664,-0.14649 2.80664,-0.14453 5.4707,-0.29101 5.46875,-0.28907 4.0293,-0.21289 4.0293,-0.21094 1.58398,-0.0859 1.58399,-0.0859 4.71679,-0.25195 4.71875,-0.25 0.13867,-0.13868 0.13868,-0.13867 0.33984,-0.85742 0.33984,-0.85742 1.55274,-3.74219 1.55078,-3.74219 0.69922,-1.70507 0.70117,-1.70313 v -0.13086 -0.13086 z"
       transform="matrix(0.26458333,0,0,0.26458333,42.309167,15.399131)" />
  </g>
  <g
     inkscape:groupmode="layer"
     id="layer2"
     inkscape:label="Layer 2"
     transform="translate(-42.309167,-15.399131)" />
</svg>
