<?xml version="1.0" encoding="UTF-8" standalone="no"?>
<!-- Created with Inkscape (http://www.inkscape.org/) -->

<svg
   width="210mm"
   height="297mm"
   viewBox="0 0 210 297"
   version="1.1"
   id="svg5"
   inkscape:version="1.1.1 (3bf5ae0d25, 2021-09-20)"
   sodipodi:docname="neighbors.svg"
   inkscape:export-filename="C:\brownhr\r-modules\img\R Module 9\neighbors.png"
   inkscape:export-xdpi="300"
   inkscape:export-ydpi="300"
   xmlns:inkscape="http://www.inkscape.org/namespaces/inkscape"
   xmlns:sodipodi="http://sodipodi.sourceforge.net/DTD/sodipodi-0.dtd"
   xmlns="http://www.w3.org/2000/svg"
   xmlns:svg="http://www.w3.org/2000/svg">
  <sodipodi:namedview
     id="namedview7"
     pagecolor="#ffffff"
     bordercolor="#999999"
     borderopacity="1"
     inkscape:pageshadow="0"
     inkscape:pageopacity="0"
     inkscape:pagecheckerboard="0"
     inkscape:document-units="mm"
     showgrid="true"
     inkscape:zoom="2.0208096"
     inkscape:cx="179.8784"
     inkscape:cy="526.27422"
     inkscape:window-width="1920"
     inkscape:window-height="991"
     inkscape:window-x="-9"
     inkscape:window-y="-9"
     inkscape:window-maximized="1"
     inkscape:current-layer="layer1"
     inkscape:snap-object-midpoints="true"
     inkscape:snap-smooth-nodes="false"
     inkscape:object-nodes="false">
    <inkscape:grid
       type="xygrid"
       id="grid824"
       spacingx="2.6458333"
       spacingy="2.6458333" />
  </sodipodi:namedview>
  <defs
     id="defs2">
    <inkscape:path-effect
       effect="offset"
       id="path-effect9916"
       is_visible="true"
       lpeversion="1"
       linejoin_type="miter"
       unit="mm"
       offset="0.1"
       miter_limit="4"
       attempt_force_join="false"
       update_on_knot_move="true" />
    <inkscape:path-effect
       effect="offset"
       id="path-effect9720"
       is_visible="true"
       lpeversion="1"
       linejoin_type="miter"
       unit="mm"
       offset="0.1"
       miter_limit="4"
       attempt_force_join="false"
       update_on_knot_move="true" />
  </defs>
  <g
     inkscape:label="Layer 1"
     inkscape:groupmode="layer"
     id="layer1">
    <g
       id="g1530"
       transform="matrix(4,0,0,3.9999987,-224.89583,-357.18731)">
      <g
         id="g1370">
        <rect
           style="fill:#d7e3f4;stroke:#000000;stroke-width:0.1;stroke-miterlimit:4;stroke-dasharray:none"
           id="rect1065"
           width="13.229166"
           height="13.229166"
           x="66.145836"
           y="119.0625" />
        <rect
           style="fill:#afc6e9;stroke:#000000;stroke-width:0.1;stroke-miterlimit:4;stroke-dasharray:none"
           id="rect1067"
           width="7.9375"
           height="7.9375"
           x="68.791664"
           y="121.70833" />
        <rect
           style="fill:#ff5555;stroke:#000000;stroke-width:0.1;stroke-miterlimit:4;stroke-dasharray:none"
           id="rect1069"
           width="2.6458333"
           height="2.6458333"
           x="71.4375"
           y="124.35416" />
      </g>
      <path
         style="fill:none;stroke:#000000;stroke-width:0.05;stroke-linecap:butt;stroke-linejoin:miter;stroke-miterlimit:4;stroke-dasharray:none;stroke-opacity:1"
         d="m 68.791666,119.0625 v 13.22916"
         id="path1405" />
      <path
         style="fill:none;stroke:#000000;stroke-width:0.05;stroke-linecap:butt;stroke-linejoin:miter;stroke-miterlimit:4;stroke-dasharray:none;stroke-opacity:1"
         d="m 71.437499,119.0625 v 13.22916"
         id="path1407" />
      <path
         style="fill:none;stroke:#000000;stroke-width:0.05;stroke-linecap:butt;stroke-linejoin:miter;stroke-miterlimit:4;stroke-dasharray:none;stroke-opacity:1"
         d="m 74.083332,119.0625 v 13.22916"
         id="path1409" />
      <path
         style="fill:none;stroke:#000000;stroke-width:0.05;stroke-linecap:butt;stroke-linejoin:miter;stroke-miterlimit:4;stroke-dasharray:none;stroke-opacity:1"
         d="m 76.729166,119.0625 v 13.22916"
         id="path1411" />
      <path
         style="fill:none;stroke:#000000;stroke-width:0.05;stroke-linecap:butt;stroke-linejoin:miter;stroke-miterlimit:4;stroke-dasharray:none;stroke-opacity:1"
         d="M 79.374999,129.64583 H 66.145832"
         id="path1413" />
      <path
         style="fill:none;stroke:#000000;stroke-width:0.05;stroke-linecap:butt;stroke-linejoin:miter;stroke-miterlimit:4;stroke-dasharray:none;stroke-opacity:1"
         d="M 66.145832,127 H 79.374999"
         id="path1415" />
      <path
         style="fill:none;stroke:#000000;stroke-width:0.05;stroke-linecap:butt;stroke-linejoin:miter;stroke-miterlimit:4;stroke-dasharray:none;stroke-opacity:1"
         d="M 79.374999,124.35416 H 66.145832"
         id="path1417" />
      <path
         style="fill:none;stroke:#000000;stroke-width:0.05;stroke-linecap:butt;stroke-linejoin:miter;stroke-miterlimit:4;stroke-dasharray:none;stroke-opacity:1"
         d="M 66.145832,121.70833 H 79.374999"
         id="path1419" />
    </g>
    <text
       xml:space="preserve"
       style="font-size:4.23333px;line-height:0.65;font-family:'Beleren Small Caps';-inkscape-font-specification:'Beleren Small Caps';letter-spacing:0px;word-spacing:0px;writing-mode:lr-tb;stroke-width:0.264583"
       x="66.038689"
       y="145.17676"
       id="text3352"><tspan
         sodipodi:role="line"
         id="tspan3350"
         style="font-style:normal;font-variant:normal;font-weight:normal;font-stretch:normal;font-size:2.82222px;font-family:'CMU Bright';-inkscape-font-specification:'CMU Bright, Normal';font-variant-ligatures:normal;font-variant-caps:normal;font-variant-numeric:normal;font-variant-east-asian:normal;text-align:center;text-anchor:middle;stroke-width:0.264583"
         x="66.038689"
         y="145.17676">Focal</tspan><tspan
         sodipodi:role="line"
         style="font-style:normal;font-variant:normal;font-weight:normal;font-stretch:normal;font-size:2.82222px;font-family:'CMU Bright';-inkscape-font-specification:'CMU Bright, Normal';font-variant-ligatures:normal;font-variant-caps:normal;font-variant-numeric:normal;font-variant-east-asian:normal;text-align:center;text-anchor:middle;stroke-width:0.264583"
         x="66.038689"
         y="147.92842"
         id="tspan4606">Unit</tspan></text>
    <g
       aria-label="1st-Order Neighbors"
       id="text6428"
       style="font-size:3.52778px;line-height:1.25;font-family:'CMU Bright';-inkscape-font-specification:'CMU Bright, Normal';letter-spacing:0px;word-spacing:0px;fill:#ffffff;stroke-width:0.264583"
       inkscape:path-effect="#path-effect9916"
       transform="translate(0.13887156)">
      <path
         d="m 51.646484,133.4668 -0.02734,0.0273 c -0.135963,0.13009 -0.330437,0.20117 -0.587891,0.20117 h -0.09961 v 0.37891 h 0.09961 c 0.144117,0 0.264056,-0.0405 0.384766,-0.0801 v 1.66797 h -0.462891 v 0.375 h 1.353516 v -0.375 H 51.84375 v -2.19531 z"
         id="path9861"
         inkscape:original-d="m 51.031351,133.97474 v -0.17915 q 0.416857,0 0.656291,-0.2291 h 0.05684 v 2.19453 h 0.461643 v 0.1757 h -1.154107 v -0.1757 h 0.463365 v -1.88791 q -0.204983,0.10163 -0.484036,0.10163 z" />
      <path
         d="m 53.236328,134.12695 c -0.126953,0 -0.239276,0.017 -0.335937,0.0527 -0.09282,0.0335 -0.175286,0.081 -0.230469,0.15039 -0.04566,0.0573 -0.07998,0.11725 -0.101563,0.17773 -0.02153,0.0602 -0.03125,0.12344 -0.03125,0.1875 0,0.1072 0.03339,0.20391 0.09961,0.29688 0.0633,0.0862 0.140185,0.15304 0.234375,0.19726 0.08572,0.0384 0.188806,0.0662 0.304687,0.0879 0.109521,0.0194 0.175227,0.0338 0.189453,0.0371 0.04781,0.0171 0.09134,0.0433 0.132813,0.0801 0.02682,0.0238 0.04297,0.0581 0.04297,0.0977 0,0.0435 -0.01866,0.0859 -0.0625,0.1289 -0.03609,0.0348 -0.104686,0.0605 -0.236328,0.0605 -0.175168,0 -0.355022,-0.0553 -0.539063,-0.17187 l -0.125,-0.0801 -0.07422,0.42187 0.0625,0.0352 c 0.215869,0.11774 0.441439,0.17773 0.677735,0.17773 0.234201,0 0.422015,-0.0547 0.539062,-0.18359 0.106492,-0.11862 0.16211,-0.25561 0.162109,-0.41016 0,-0.13866 -0.04227,-0.2597 -0.132812,-0.35742 -0.08265,-0.092 -0.181108,-0.1575 -0.296875,-0.19922 -0.04662,-0.016 -0.130856,-0.0349 -0.244141,-0.0566 -0.112359,-0.0228 -0.177002,-0.0376 -0.18164,-0.0391 -0.05792,-0.0165 -0.09546,-0.042 -0.117188,-0.0684 -0.02456,-0.0298 -0.0332,-0.0576 -0.0332,-0.082 0,-0.035 0.0153,-0.075 0.05273,-0.11328 0.02892,-0.0289 0.09304,-0.0527 0.220703,-0.0527 0.157614,0 0.321341,0.0414 0.490234,0.12696 l 0.119141,0.0605 0.07422,-0.40234 -0.07227,-0.0332 c -0.189841,-0.0845 -0.383668,-0.12696 -0.578125,-0.12696 z"
         id="path9863"
         inkscape:original-d="m 52.614373,135.79892 0.03617,-0.20499 q 0.296278,0.18776 0.592557,0.18776 0.215318,0 0.306614,-0.0879 0.0913,-0.0896 0.0913,-0.20154 0,-0.10507 -0.07579,-0.17225 -0.07579,-0.0672 -0.167087,-0.0999 -0.03962,-0.0103 -0.204983,-0.0396 -0.165365,-0.031 -0.280776,-0.0827 -0.113688,-0.0534 -0.194648,-0.16364 -0.08096,-0.11369 -0.08096,-0.23944 0,-0.081 0.02584,-0.1533 0.02584,-0.0724 0.08613,-0.14814 0.06029,-0.0758 0.184313,-0.12058 0.125746,-0.0465 0.303169,-0.0465 h 0.01034 q 0.268718,0 0.535713,0.11886 l -0.03445,0.19464 q -0.272163,-0.1378 -0.535713,-0.1378 -0.208428,0 -0.291111,0.0827 -0.08096,0.0827 -0.08096,0.18259 0,0.0775 0.05685,0.14642 0.05684,0.0689 0.165364,0.0999 0.02067,0.007 0.189481,0.0413 0.170532,0.0327 0.230821,0.0534 0.148139,0.0534 0.254937,0.17225 0.108521,0.11714 0.108521,0.29111 0,0.19121 -0.136081,0.34279 -0.136082,0.14986 -0.465089,0.14986 -0.327284,0 -0.630453,-0.16536 z" />
      <path
         d="m 54.238281,133.69531 v 0.47657 h -0.339843 v 0.37695 h 0.333984 v 0.92578 c 0,0.35423 0.118551,0.58984 0.392578,0.58984 0.211312,0 0.408171,-0.0591 0.589844,-0.17187 l 0.0625,-0.0391 -0.08594,-0.31641 h -0.07617 c -0.0467,0 -0.0771,0.0314 -0.08984,0.043 -0.008,0.007 -0.01505,0.0126 -0.01953,0.0156 l -0.04297,0.0274 c -0.015,0.01 -0.02638,0.016 -0.03516,0.0195 -0.01731,0.007 -0.03596,0.0151 -0.05664,0.0234 -0.01456,0.005 -0.03148,0.009 -0.05078,0.0117 -0.01921,0.003 -0.04064,0.004 -0.06836,0.004 -0.05519,0 -0.101562,-0.0398 -0.101562,-0.23242 v -0.90039 h 0.546875 v -0.37695 h -0.546875 v -0.47657 z"
         id="path9865"
         inkscape:original-d="m 53.99758,134.44844 v -0.17742 h 0.339342 v -0.47543 h 0.213596 v 0.47543 h 0.547771 v 0.17742 h -0.547771 v 1.0008 q 0,0.33245 0.201539,0.33245 0.04306,0 0.08096,-0.005 0.03962,-0.005 0.07235,-0.0172 0.03445,-0.0138 0.06029,-0.0241 0.02584,-0.0103 0.05168,-0.0276 0.02756,-0.0172 0.04134,-0.0258 0.0155,-0.0103 0.03445,-0.0276 0.01895,-0.0172 0.02239,-0.0172 l 0.04651,0.17225 q -0.249769,0.15503 -0.537435,0.15503 -0.292833,0 -0.292833,-0.4892 v -1.02664 z" />
      <path
         d="m 55.207031,134.91602 v 0.37695 h 1.185547 v -0.37695 z"
         id="path9867"
         inkscape:original-d="m 55.306718,135.19258 v -0.17742 h 0.98702 v 0.17742 z" />
      <path
         d="m 57.880859,133.32812 c -0.352906,0 -0.650519,0.13502 -0.902343,0.4043 -0.249397,0.26801 -0.373047,0.59687 -0.373047,0.98242 0,0.38358 0.124061,0.71215 0.375,0.98047 0.252804,0.26775 0.549349,0.40039 0.898437,0.40039 0.349912,0 0.645693,-0.132 0.898438,-0.39843 0.252185,-0.26586 0.376952,-0.59459 0.376953,-0.98047 0,-0.38697 -0.125118,-0.71641 -0.376953,-0.98438 -0.252259,-0.26842 -0.54667,-0.4043 -0.896485,-0.4043 z m 0,0.38282 c 0.217585,0 0.411784,0.0853 0.576172,0.25586 0.162646,0.1677 0.25,0.39948 0.25,0.70312 0,0.3256 -0.08782,0.58017 -0.251953,0.76367 -0.165044,0.18568 -0.359092,0.27539 -0.574219,0.27539 -0.216931,0 -0.413302,-0.0927 -0.578125,-0.28125 -0.163894,-0.18745 -0.251953,-0.43933 -0.251953,-0.75781 0,-0.30609 0.08776,-0.5388 0.25,-0.70508 0.166929,-0.17107 0.359089,-0.2539 0.580078,-0.2539 z"
         id="path9869"
         inkscape:original-d="m 56.705427,134.71543 q 0,-0.5426 0.346233,-0.91467 0.347954,-0.37207 0.828546,-0.37207 0.475423,0 0.8251,0.37207 0.349678,0.37207 0.349678,0.9164 0,0.5426 -0.349678,0.91123 -0.349677,0.36862 -0.826823,0.36862 -0.475423,0 -0.825101,-0.37035 -0.347955,-0.37207 -0.347955,-0.91123 z m 0.246325,-0.0448 q 0,0.50815 0.275608,0.82338 0.275607,0.31522 0.652846,0.31522 0.373793,0 0.6494,-0.31006 0.277331,-0.31005 0.277331,-0.82854 0,-0.48748 -0.277331,-0.77343 -0.275607,-0.28594 -0.6494,-0.28594 -0.373794,0 -0.651124,0.28422 -0.27733,0.28422 -0.27733,0.77515 z" />
      <path
         d="m 60.525391,134.14258 -0.101563,0.002 c -0.106327,0.003 -0.208251,0.0196 -0.300781,0.0566 -0.09045,0.0354 -0.166601,0.0834 -0.230469,0.14453 -0.01472,0.0144 -0.02367,0.0286 -0.03711,0.043 v -0.21679 h -0.410157 v 1.86523 h 0.419922 v -0.93164 c 0,-0.10626 0.01863,-0.19362 0.05273,-0.26563 0.03523,-0.0754 0.08071,-0.13193 0.132812,-0.16992 0.06025,-0.0439 0.121518,-0.074 0.183594,-0.0937 0.06386,-0.0212 0.127579,-0.0334 0.193359,-0.0351 l 0.09766,-0.002 z"
         id="path9871"
         inkscape:original-d="m 59.544187,135.93672 v -1.6657 h 0.211874 v 0.26871 l 0.0034,0.16537 q 0.02756,-0.0706 0.07579,-0.14125 0.04995,-0.0706 0.127469,-0.14642 0.07924,-0.0758 0.198093,-0.1223 0.120578,-0.0482 0.265272,-0.0517 v 0.19809 q -0.113688,0.003 -0.223931,0.0396 -0.108521,0.0345 -0.210151,0.10852 -0.10163,0.0741 -0.163642,0.2067 -0.06201,0.13092 -0.06201,0.30834 v 0.83199 z" />
      <path
         d="m 61.693359,133.38672 v 0.95117 c -0.118031,-0.0878 -0.22946,-0.19336 -0.382812,-0.19336 -0.214151,0 -0.391422,0.0954 -0.542969,0.2793 -0.15261,0.18391 -0.224609,0.41234 -0.224609,0.68164 0,0.25328 0.06798,0.47248 0.205078,0.66211 0.140786,0.19293 0.316215,0.29687 0.537109,0.29687 0.169712,0 0.283883,-0.12374 0.40625,-0.23047 v 0.20313 h 0.423828 v -2.65039 z m -0.263671,1.13281 c 0.07369,0 0.136309,0.0227 0.189453,0.0664 0.05593,0.0444 0.07227,0.0826 0.07227,0.10937 v 0.74414 c 0,0.0163 -0.0011,0.0274 -0.002,0.0371 -2.97e-4,0.003 -5.47e-4,0.009 -0.002,0.0137 l -0.0039,0.006 c -0.0023,0.004 -0.01,0.0149 -0.01758,0.0273 -0.0084,0.0126 -0.01391,0.0235 -0.01953,0.0332 -0.06906,0.0909 -0.151979,0.13281 -0.248046,0.13281 -0.04259,0 -0.08698,-0.007 -0.128907,-0.0215 -0.04159,-0.0151 -0.08896,-0.0417 -0.140625,-0.082 -0.03897,-0.0304 -0.07514,-0.0823 -0.107422,-0.16602 -0.03142,-0.0825 -0.04883,-0.18601 -0.04883,-0.31445 0,-0.10127 0.01333,-0.18844 0.03906,-0.26367 0.0278,-0.0813 0.05569,-0.13483 0.08398,-0.16797 0.03269,-0.0372 0.07341,-0.0674 0.119141,-0.0918 0.04884,-0.027 0.08584,-0.0416 0.11914,-0.0488 0.03635,-0.009 0.06741,-0.0137 0.0957,-0.0137 z"
         id="path9873"
         inkscape:original-d="m 60.643174,135.10473 q 0,-0.37379 0.201538,-0.61667 0.201539,-0.2446 0.465089,-0.2446 0.282498,0 0.484036,0.24632 v -1.00425 h 0.222209 v 2.45119 h -0.225654 v -0.14814 l -0.0034,-0.11024 q -0.194648,0.28594 -0.501262,0.28594 -0.272163,0 -0.458198,-0.25493 -0.184313,-0.25494 -0.184313,-0.60462 z m 0.229099,0 q 0,0.20498 0.05512,0.34968 0.05512,0.14297 0.141249,0.21015 0.08613,0.0672 0.167087,0.0965 0.08096,0.0276 0.16192,0.0276 0.198093,0 0.329006,-0.17225 0.01034,-0.0172 0.02412,-0.0379 0.01378,-0.0224 0.01895,-0.031 0.0069,-0.009 0.01206,-0.0241 0.0052,-0.0172 0.0069,-0.0362 0.0017,-0.019 0.0017,-0.0482 v -0.74415 q 0,-0.10163 -0.108521,-0.18775 -0.106798,-0.0879 -0.251492,-0.0879 -0.05684,0 -0.120578,0.0155 -0.06374,0.0138 -0.144695,0.0586 -0.08096,0.0431 -0.142971,0.11368 -0.06029,0.0706 -0.105076,0.20154 -0.04479,0.13092 -0.04479,0.29628 z" />
      <path
         d="m 63.179688,134.13086 c -0.240873,0 -0.439271,0.0979 -0.597657,0.29297 -0.154551,0.19031 -0.230469,0.41244 -0.230469,0.66601 0,0.27052 0.08464,0.50217 0.25586,0.69141 0.1735,0.18904 0.380478,0.2832 0.628906,0.2832 0.238321,0 0.454747,-0.0862 0.652344,-0.25 l 0.03906,-0.0332 -0.03906,-0.44336 -0.148438,0.13281 c -0.165115,0.14829 -0.334952,0.21875 -0.503906,0.21875 -0.11816,0 -0.226798,-0.0499 -0.326172,-0.16015 -0.0789,-0.0884 -0.109097,-0.22493 -0.123047,-0.375 h 1.144532 v -0.0996 c 0,-0.17318 -0.02362,-0.32581 -0.07227,-0.45508 -0.04768,-0.12803 -0.115201,-0.23465 -0.205078,-0.30273 -0.07749,-0.0597 -0.155729,-0.10168 -0.234375,-0.12696 -0.07844,-0.027 -0.157833,-0.0391 -0.240234,-0.0391 z m 0,0.375 c 0.08387,0 0.160343,0.0301 0.234374,0.0957 0.04272,0.0373 0.06091,0.13113 0.08398,0.21289 h -0.662109 c 0.02746,-0.0686 0.04787,-0.14375 0.0957,-0.19336 0.07582,-0.0786 0.158802,-0.11523 0.248047,-0.11523 z"
         id="path9875"
         inkscape:original-d="m 62.45185,135.08923 q 0,-0.34623 0.208429,-0.60289 0.208428,-0.25666 0.518487,-0.25666 0.10852,0 0.208428,0.0344 0.101631,0.0327 0.206706,0.11369 0.106798,0.0809 0.172255,0.25665 0.06546,0.17398 0.06546,0.42031 h -1.167888 v 0.0276 q 0,0.32039 0.172255,0.51332 0.173977,0.19292 0.399631,0.19292 0.299723,0 0.570164,-0.24288 l 0.01895,0.19293 q -0.272163,0.22565 -0.589112,0.22565 -0.323839,0 -0.554661,-0.25149 -0.229099,-0.25321 -0.229099,-0.62356 z m 0.229099,-0.1757 h 0.95946 q -0.02412,-0.26872 -0.160197,-0.38758 -0.136082,-0.12057 -0.301446,-0.12057 -0.179145,0 -0.318672,0.14469 -0.139526,0.14469 -0.179145,0.36346 z" />
      <path
         d="m 65.214844,134.14258 -0.101563,0.002 c -0.106327,0.003 -0.208251,0.0197 -0.300781,0.0566 -0.09046,0.0354 -0.166601,0.0834 -0.230469,0.14453 -0.01432,0.014 -0.02363,0.0288 -0.03711,0.043 v -0.21679 h -0.41211 v 1.86523 h 0.421876 v -0.93164 c 0,-0.10626 0.01862,-0.19362 0.05273,-0.26563 0.03523,-0.0754 0.08071,-0.13193 0.132812,-0.16992 0.06082,-0.0443 0.120339,-0.0742 0.181641,-0.0937 0.06377,-0.0212 0.129045,-0.0334 0.195313,-0.0351 l 0.09766,-0.002 z"
         id="path9877"
         inkscape:original-d="m 64.232965,135.93672 v -1.6657 h 0.211874 v 0.26871 l 0.0034,0.16537 q 0.02756,-0.0706 0.07579,-0.14125 0.04995,-0.0706 0.127468,-0.14642 0.07924,-0.0758 0.198094,-0.1223 0.120578,-0.0482 0.265272,-0.0517 v 0.19809 q -0.113688,0.003 -0.223931,0.0396 -0.108521,0.0345 -0.210151,0.10852 -0.101631,0.0741 -0.163642,0.2067 -0.06201,0.13092 -0.06201,0.30834 v 0.83199 z" />
      <path
         d="m 66.595703,133.38672 v 2.65039 h 0.421875 v -1.95703 l 1.064453,1.95703 h 0.50586 v -2.65039 h -0.421875 v 1.95508 l -1.064454,-1.95508 z"
         id="path9879"
         inkscape:original-d="m 66.696211,135.93672 v -2.45119 h 0.346232 l 1.22301,2.24621 v -2.24621 h 0.222208 v 2.45119 h -0.346232 l -1.22301,-2.24792 v 2.24792 z" />
      <path
         d="m 69.714844,134.13086 c -0.240873,0 -0.43927,0.0979 -0.597656,0.29297 -0.154552,0.19031 -0.230469,0.41244 -0.230469,0.66601 0,0.27052 0.08464,0.50217 0.255859,0.69141 0.173501,0.18904 0.380478,0.2832 0.628906,0.2832 0.238322,0 0.454748,-0.0862 0.652344,-0.25 l 0.03906,-0.0332 -0.03906,-0.44336 -0.148437,0.13281 c -0.165115,0.14829 -0.334952,0.21875 -0.503907,0.21875 -0.118159,0 -0.226796,-0.0499 -0.326172,-0.16015 -0.07889,-0.0884 -0.109097,-0.22493 -0.123046,-0.375 h 1.144531 v -0.0996 c -10e-7,-0.17318 -0.02362,-0.32581 -0.07227,-0.45508 -0.04768,-0.12803 -0.115201,-0.23465 -0.205078,-0.30273 -0.07749,-0.0597 -0.15573,-0.10168 -0.234375,-0.12696 -0.07844,-0.027 -0.157833,-0.0391 -0.240234,-0.0391 z m 0,0.375 c 0.08387,0 0.160345,0.0301 0.234375,0.0957 0.04272,0.0373 0.06091,0.13113 0.08398,0.21289 h -0.662109 c 0.02746,-0.0686 0.04787,-0.14375 0.0957,-0.19336 0.07582,-0.0786 0.158803,-0.11523 0.248047,-0.11523 z"
         id="path9881"
         inkscape:original-d="m 68.987201,135.08923 q 0,-0.34623 0.208428,-0.60289 0.208429,-0.25666 0.518488,-0.25666 0.10852,0 0.208428,0.0344 0.10163,0.0327 0.206706,0.11369 0.106798,0.0809 0.172255,0.25665 0.06546,0.17398 0.06546,0.42031 h -1.167889 v 0.0276 q 0,0.32039 0.172255,0.51332 0.173978,0.19292 0.399632,0.19292 0.299723,0 0.570163,-0.24288 l 0.01895,0.19293 q -0.272162,0.22565 -0.589111,0.22565 -0.32384,0 -0.554661,-0.25149 -0.229099,-0.25321 -0.229099,-0.62356 z m 0.229099,-0.1757 h 0.95946 q -0.02412,-0.26872 -0.160197,-0.38758 -0.136082,-0.12057 -0.301446,-0.12057 -0.179146,0 -0.318672,0.14469 -0.139526,0.14469 -0.179145,0.36346 z" />
      <path
         d="m 70.667969,133.38867 v 0.42188 h 0.421875 v -0.42188 z m 0,0.78321 v 1.86523 h 0.421875 v -1.86523 z"
         id="path9883"
         inkscape:original-d="m 70.768315,135.93672 v -1.6657 h 0.222209 v 1.6657 z m 0,-2.22553 v -0.22221 h 0.222209 v 0.22221 z" />
      <path
         d="m 72.136719,134.14453 c -0.221243,0 -0.405093,0.0974 -0.5625,0.2832 -0.157637,0.18478 -0.234375,0.40961 -0.234375,0.67383 0,0.24072 0.07304,0.44733 0.220703,0.61719 0.14904,0.16996 0.322816,0.25781 0.535156,0.25781 0.152364,0 0.282462,-0.0461 0.382813,-0.14648 0.0041,-0.004 0.0057,-0.009 0.0098,-0.0137 v 0.0781 c 0,0.15845 -0.03781,0.25883 -0.0957,0.31836 -0.06207,0.0647 -0.136325,0.0957 -0.214844,0.0957 -0.08715,0 -0.171816,-0.009 -0.253906,-0.0273 -0.08562,-0.0189 -0.145013,-0.0378 -0.18164,-0.0547 -0.04188,-0.0187 -0.09695,-0.045 -0.166016,-0.0801 l -0.144531,-0.0723 v 0.41601 l 0.05664,0.0274 c 0.231261,0.11139 0.462682,0.16797 0.695313,0.16797 0.207206,0 0.385686,-0.071 0.523437,-0.2168 0.141063,-0.14648 0.205078,-0.3367 0.205078,-0.5625 v -1.76172 h -0.421875 v 0.23438 c -0.106771,-0.10239 -0.199586,-0.23438 -0.353515,-0.23438 z m 0.101562,0.375 c 0.07933,0 0.136111,0.0309 0.177735,0.0937 0.05334,0.079 0.07422,0.1481 0.07422,0.20899 v 0.13281 h -0.002 v 0.0996 c 0,0.0715 -0.0067,0.13909 -0.01953,0.20312 -0.01131,0.0617 -0.03114,0.12286 -0.05664,0.18555 -0.01981,0.0499 -0.04955,0.0892 -0.08789,0.11719 -0.03485,0.026 -0.07765,0.041 -0.128907,0.041 -0.1033,0 -0.201283,-0.0441 -0.292968,-0.14062 -0.08764,-0.0933 -0.132813,-0.21035 -0.132813,-0.35938 0,-0.1685 0.05077,-0.30679 0.146485,-0.41797 0.09681,-0.11132 0.207952,-0.16406 0.322265,-0.16406 z"
         id="path9885"
         inkscape:original-d="m 71.44011,135.10129 q 0,-0.36346 0.210151,-0.60979 0.210151,-0.24804 0.485759,-0.24804 0.285943,0 0.454753,0.30661 v -0.30661 h 0.222209 v 1.66226 q 0,0.30661 -0.179145,0.49264 -0.177423,0.18776 -0.449586,0.18776 -0.323839,0 -0.652846,-0.15847 v -0.1912 q 0.105076,0.0534 0.170533,0.0827 0.06718,0.031 0.199815,0.0603 0.134359,0.0293 0.275608,0.0293 0.165365,0 0.287666,-0.12747 0.122301,-0.12574 0.122301,-0.38757 v -0.27389 l -0.0034,-0.12402 q -0.05684,0.14469 -0.1757,0.26355 -0.117134,0.11713 -0.311782,0.11713 -0.265272,0 -0.461643,-0.22393 -0.194648,-0.22393 -0.194648,-0.55121 z m 0.229099,0 q 0,0.25838 0.160197,0.42891 0.16192,0.17053 0.365181,0.17053 0.10852,0 0.18948,-0.0603 0.08268,-0.0603 0.122301,-0.16019 0.04134,-0.10163 0.06029,-0.20499 0.02067,-0.10335 0.02067,-0.22048 h 0.0034 v -0.23255 q 0,-0.12747 -0.09302,-0.26527 -0.0913,-0.1378 -0.260105,-0.1378 -0.225654,0 -0.397908,0.19809 -0.170533,0.19809 -0.170533,0.48404 z" />
      <path
         d="m 73.283203,133.38672 v 2.65039 h 0.427735 v -1.02539 c 0,-0.21364 0.03566,-0.33229 0.09375,-0.39453 0.06462,-0.0683 0.133703,-0.0977 0.208984,-0.0977 0.068,0 0.117961,0.01 0.15625,0.0254 0.04513,0.0177 0.06901,0.0327 0.08398,0.0488 0.01246,0.0125 0.02428,0.0331 0.03516,0.0684 0.01345,0.0403 0.01886,0.0644 0.01953,0.0801 0.0011,0.0236 0.002,0.0564 0.002,0.0977 v 1.19727 h 0.423828 v -1.21094 c 0,-0.056 4.69e-4,-0.10669 -0.002,-0.14844 -0.0029,-0.0497 -0.01701,-0.11119 -0.03711,-0.17382 -0.02164,-0.0717 -0.05442,-0.13447 -0.09766,-0.1836 -0.04558,-0.0538 -0.113715,-0.095 -0.1875,-0.125 -0.08201,-0.0354 -0.175128,-0.0508 -0.279297,-0.0508 -0.159192,0 -0.295473,0.0429 -0.404297,0.13867 -0.0098,0.009 -0.01218,0.0204 -0.02148,0.0293 v -0.92578 z"
         id="path9887"
         inkscape:original-d="m 73.383145,135.93672 v -2.45119 h 0.222209 v 0.96635 l 0.0034,0.15159 q 0.05684,-0.13436 0.184313,-0.24633 0.129191,-0.11368 0.337619,-0.11368 0.141249,0 0.241157,0.0431 0.10163,0.0413 0.149862,0.0982 0.04995,0.0568 0.07751,0.14813 0.02928,0.0913 0.03273,0.14987 0.0034,0.0586 0.0034,0.14297 v 1.11104 h -0.225654 v -1.09726 q 0,-0.0637 -0.0017,-0.10163 -0.0017,-0.0396 -0.02412,-0.1068 -0.02067,-0.0672 -0.06029,-0.1068 -0.0379,-0.0413 -0.117134,-0.0724 -0.07924,-0.0327 -0.192925,-0.0327 -0.158475,0 -0.280776,0.12919 -0.120578,0.12919 -0.120578,0.46336 v 0.92501 z" />
      <path
         d="m 75.105469,133.38672 v 2.65039 h 0.429687 v -0.17188 c 0.108632,0.0878 0.207593,0.19922 0.353516,0.19922 0.22527,0 0.410979,-0.0985 0.564453,-0.28711 0.152625,-0.18754 0.224609,-0.41435 0.224609,-0.67968 0,-0.25637 -0.06196,-0.47656 -0.197265,-0.66211 -0.136292,-0.19002 -0.309027,-0.29102 -0.523438,-0.29102 -0.171667,0 -0.297799,0.11202 -0.429687,0.21289 v -0.9707 z m 0.716797,1.13281 c 0.04257,0 0.08664,0.008 0.132812,0.0234 0.04204,0.0131 0.08776,0.0372 0.138672,0.0762 0.03962,0.0303 0.07767,0.083 0.109375,0.16992 0.03157,0.0838 0.04883,0.18796 0.04883,0.31641 0,0.1214 -0.01836,0.21824 -0.05078,0.29883 -0.03193,0.0818 -0.07077,0.13812 -0.115234,0.17187 -0.05412,0.0419 -0.107389,0.0708 -0.154297,0.0879 -0.04927,0.0171 -0.0991,0.0254 -0.150391,0.0254 -0.0708,0 -0.128414,-0.0246 -0.177734,-0.0723 -0.05201,-0.0511 -0.07227,-0.10025 -0.07227,-0.14258 0,0 7.32e-4,-0.002 0.002,-0.0117 0.0012,-0.0106 0.002,-0.0263 0.002,-0.0371 v -0.69922 c 0,-0.0381 -0.0015,-0.0335 0,-0.0371 0,0 0.01244,-0.0181 0.04102,-0.0566 0.06855,-0.0748 0.152924,-0.11328 0.246094,-0.11328 z"
         id="path9889"
         inkscape:original-d="m 75.205601,135.93672 v -2.45119 h 0.222209 v 1.0232 q 0.218764,-0.26527 0.528823,-0.26527 0.261827,0 0.440972,0.24977 0.180868,0.24804 0.180868,0.60461 0,0.3669 -0.203261,0.61667 -0.203261,0.24977 -0.485759,0.24977 -0.272162,0 -0.454753,-0.2601 v 0.23254 z m 0.225654,-0.46164 q 0,0.11369 0.101631,0.21359 0.103353,0.0999 0.248047,0.0999 0.09474,0 0.184312,-0.031 0.08957,-0.0327 0.180868,-0.10336 0.09302,-0.0706 0.148139,-0.21187 0.05684,-0.14125 0.05684,-0.33762 0,-0.20498 -0.05512,-0.3514 -0.0534,-0.14642 -0.141249,-0.2136 -0.08785,-0.0672 -0.170533,-0.093 -0.08096,-0.0276 -0.161919,-0.0276 -0.187758,0 -0.320394,0.14469 -0.0534,0.0706 -0.06029,0.0879 -0.0069,0.0155 -0.0069,0.0758 v 0.69763 q 0,0.0103 -0.0017,0.0258 -0.0017,0.0138 -0.0017,0.0241 z" />
      <path
         d="m 77.669922,134.13086 c -0.247011,0 -0.453627,0.0931 -0.626953,0.2832 -0.172724,0.18819 -0.25586,0.42124 -0.25586,0.69141 0,0.26162 0.0831,0.48828 0.253907,0.67578 0.1735,0.18904 0.380477,0.2832 0.628906,0.2832 0.238794,0 0.446815,-0.0961 0.61914,-0.27734 0.174321,-0.18336 0.259766,-0.41123 0.259766,-0.68164 0,-0.26173 -0.08302,-0.49044 -0.25,-0.68164 -0.170055,-0.19602 -0.377733,-0.29297 -0.628906,-0.29297 z m -0.002,0.375 c 0.05266,0 0.103144,0.008 0.152343,0.0254 0.04577,0.015 0.09367,0.0415 0.146485,0.084 0.04218,0.0333 0.0792,0.0856 0.109375,0.16602 0.02993,0.0763 0.04687,0.17195 0.04687,0.29102 0,0.12612 -0.01594,0.22961 -0.04687,0.31445 -0.03039,0.0861 -0.06866,0.14244 -0.111328,0.17773 -0.05069,0.0427 -0.101768,0.0719 -0.148438,0.0899 -0.04955,0.0181 -0.0982,0.0273 -0.146484,0.0273 -0.04671,0 -0.09208,-0.007 -0.136719,-0.0215 -0.0443,-0.0154 -0.09477,-0.0437 -0.150391,-0.0859 -0.04251,-0.0323 -0.08226,-0.0873 -0.117187,-0.17774 -0.0335,-0.0867 -0.05273,-0.1968 -0.05273,-0.33398 0,-0.11633 0.01545,-0.211 0.04492,-0.28516 0.03215,-0.0794 0.07075,-0.13028 0.111329,-0.16211 0.05335,-0.041 0.103974,-0.0701 0.152343,-0.0859 0.04787,-0.0166 0.09566,-0.0234 0.146485,-0.0234 z"
         id="path9891"
         inkscape:original-d="m 76.886809,135.10473 q 0,-0.37035 0.230821,-0.62184 0.230822,-0.25321 0.552938,-0.25321 0.327285,0 0.552939,0.2601 0.225654,0.25838 0.225654,0.61495 0,0.37035 -0.232545,0.61495 -0.232544,0.2446 -0.546048,0.2446 -0.323839,0 -0.55466,-0.25149 -0.229099,-0.25149 -0.229099,-0.60806 z m 0.225654,-0.0431 q 0,0.21876 0.05857,0.37034 0.05857,0.15159 0.151585,0.22221 0.09302,0.0706 0.177422,0.0999 0.08441,0.0276 0.170532,0.0276 0.0913,0 0.180868,-0.0327 0.08957,-0.0345 0.177423,-0.10852 0.08957,-0.0741 0.141249,-0.22048 0.0534,-0.14642 0.0534,-0.34796 0,-0.1912 -0.0534,-0.32728 -0.05168,-0.13781 -0.141249,-0.20843 -0.08785,-0.0706 -0.177423,-0.0999 -0.08957,-0.031 -0.18259,-0.031 -0.0913,0 -0.180868,0.031 -0.08957,0.0293 -0.179145,0.0982 -0.08785,0.0689 -0.142971,0.20498 -0.0534,0.13436 -0.0534,0.32212 z" />
      <path
         d="m 79.759766,134.14258 -0.101563,0.002 c -0.106327,0.003 -0.208251,0.0196 -0.300781,0.0566 -0.09045,0.0354 -0.166601,0.0834 -0.230469,0.14453 -0.01432,0.014 -0.02363,0.0288 -0.03711,0.043 v -0.21679 h -0.41211 v 1.86523 h 0.421875 v -0.93164 c 0,-0.10626 0.01863,-0.19362 0.05273,-0.26563 0.03523,-0.0754 0.08071,-0.13193 0.132812,-0.16992 0.06082,-0.0443 0.120339,-0.0742 0.181641,-0.0937 0.06377,-0.0212 0.129045,-0.0334 0.195312,-0.0351 l 0.09766,-0.002 z"
         id="path9893"
         inkscape:original-d="m 78.778168,135.93672 v -1.6657 h 0.211874 v 0.26871 l 0.0034,0.16537 q 0.02756,-0.0706 0.07579,-0.14125 0.04995,-0.0706 0.127469,-0.14642 0.07924,-0.0758 0.198093,-0.1223 0.120578,-0.0482 0.265272,-0.0517 v 0.19809 q -0.113688,0.003 -0.223931,0.0396 -0.108521,0.0345 -0.210151,0.10852 -0.10163,0.0741 -0.163642,0.2067 -0.06201,0.13092 -0.06201,0.30834 v 0.83199 z" />
      <path
         d="m 80.439453,134.12695 c -0.126672,0 -0.241222,0.017 -0.337891,0.0527 -0.09395,0.0339 -0.173342,0.081 -0.228515,0.15039 -0.04566,0.0573 -0.07998,0.11725 -0.101563,0.17773 -0.02153,0.0602 -0.03125,0.12344 -0.03125,0.1875 0,0.1072 0.03339,0.20391 0.09961,0.29688 0.0633,0.0862 0.140185,0.15304 0.234375,0.19726 0.08572,0.0384 0.188806,0.0662 0.304687,0.0879 0.109521,0.0194 0.175227,0.0338 0.189453,0.0371 0.04781,0.0171 0.09134,0.0433 0.132813,0.0801 0.02682,0.0238 0.04297,0.0581 0.04297,0.0977 0,0.0435 -0.01865,0.0859 -0.0625,0.1289 -0.03609,0.0348 -0.104684,0.0605 -0.236329,0.0605 -0.175165,0 -0.355021,-0.0553 -0.539062,-0.17187 l -0.125,-0.0801 -0.07617,0.42187 0.0625,0.0352 c 0.216122,0.11788 0.443392,0.17773 0.679688,0.17773 0.234201,0 0.422016,-0.0547 0.539062,-0.18359 0.106494,-0.11862 0.162109,-0.25562 0.16211,-0.41016 0,-0.13992 -0.04491,-0.26044 -0.134766,-0.35742 -0.08201,-0.0913 -0.178734,-0.15735 -0.294922,-0.19922 -0.04662,-0.016 -0.130855,-0.0349 -0.244141,-0.0566 -0.112358,-0.0228 -0.177002,-0.0376 -0.18164,-0.0391 -0.05792,-0.0165 -0.09547,-0.042 -0.117188,-0.0684 -0.02456,-0.0298 -0.0332,-0.0576 -0.0332,-0.082 0,-0.0372 0.01429,-0.076 0.05078,-0.11328 0.02892,-0.0289 0.09304,-0.0527 0.220703,-0.0527 0.158148,0 0.323193,0.0414 0.492188,0.12696 l 0.121094,0.0605 0.06836,-0.40429 -0.07031,-0.0312 c -0.189585,-0.0844 -0.381716,-0.12696 -0.576172,-0.12696 z"
         id="path9895"
         inkscape:original-d="m 79.816865,135.79892 0.03617,-0.20499 q 0.296278,0.18776 0.592556,0.18776 0.215319,0 0.306614,-0.0879 0.0913,-0.0896 0.0913,-0.20154 0,-0.10507 -0.07579,-0.17225 -0.07579,-0.0672 -0.167087,-0.0999 -0.03962,-0.0103 -0.204983,-0.0396 -0.165365,-0.031 -0.280776,-0.0827 -0.113688,-0.0534 -0.194648,-0.16364 -0.08096,-0.11369 -0.08096,-0.23944 0,-0.081 0.02584,-0.1533 0.02584,-0.0724 0.08613,-0.14814 0.06029,-0.0758 0.184313,-0.12058 0.125746,-0.0465 0.303168,-0.0465 h 0.01034 q 0.268717,0 0.535712,0.11886 l -0.03445,0.19464 q -0.272162,-0.1378 -0.535712,-0.1378 -0.208429,0 -0.291111,0.0827 -0.08096,0.0827 -0.08096,0.18259 0,0.0775 0.05684,0.14642 0.05684,0.0689 0.165365,0.0999 0.02067,0.007 0.18948,0.0413 0.170533,0.0327 0.230822,0.0534 0.148139,0.0534 0.254937,0.17225 0.108521,0.11714 0.108521,0.29111 0,0.19121 -0.136082,0.34279 -0.136081,0.14986 -0.465088,0.14986 -0.327284,0 -0.630453,-0.16536 z" />
    </g>
    <g
       aria-label="2nd-Order Neighbors"
       id="text6428-1"
       style="font-size:3.52778px;line-height:1.25;font-family:'CMU Bright';-inkscape-font-specification:'CMU Bright, Normal';letter-spacing:0px;word-spacing:0px;fill:#ffffff;stroke-width:0.264583"
       inkscape:path-effect="#path-effect9720"
       transform="translate(0.76153278,0.0162751)">
      <path
         d="m 50.566406,122.70898 c -0.41457,0 -0.690191,0.22986 -0.818359,0.66211 l -0.01563,0.0527 0.289062,0.34961 0.05078,-0.18946 c 0.04507,-0.17147 0.10089,-0.29406 0.167968,-0.3789 0.05638,-0.0703 0.143701,-0.11133 0.277344,-0.11133 0.149928,0 0.268522,0.0455 0.363281,0.12891 0.09006,0.0784 0.138672,0.18265 0.138672,0.3125 0,0.12245 -0.03548,0.2309 -0.105469,0.32812 -0.07597,0.107 -0.193928,0.23199 -0.361328,0.37891 l -0.777343,0.70312 v 0.33203 h 1.68164 v -0.39648 h -1.11914 c 0.12821,-0.11493 0.297818,-0.268 0.322265,-0.28906 0.04064,-0.035 0.117355,-0.0987 0.228516,-0.18946 0.08307,-0.0657 0.145758,-0.11818 0.185547,-0.15429 0.03874,-0.0363 0.09354,-0.0936 0.162109,-0.16797 0.07402,-0.0815 0.131469,-0.16589 0.167969,-0.25781 0.03579,-0.0915 0.05273,-0.18927 0.05273,-0.29102 0,-0.23773 -0.08263,-0.43317 -0.253906,-0.58984 -0.169292,-0.15651 -0.381611,-0.23023 -0.632813,-0.23243 z"
         id="path9665"
         inkscape:original-d="m 49.843136,123.40048 q 0.175699,-0.59256 0.72347,-0.59256 h 0.0034 q 0.342787,0.003 0.564996,0.20843 0.222209,0.20326 0.222209,0.51504 0,0.13436 -0.04651,0.25321 -0.04651,0.11714 -0.148139,0.2291 -0.10163,0.11025 -0.156752,0.16192 -0.05512,0.05 -0.179145,0.14814 -0.16881,0.13781 -0.230822,0.19121 -0.06201,0.0534 -0.520209,0.46508 h 1.281576 v 0.1981 h -1.483115 v -0.18776 l 0.745864,-0.67352 q 0.253215,-0.22221 0.375516,-0.39446 0.124023,-0.17226 0.124023,-0.38758 0,-0.23943 -0.172255,-0.38929 -0.172255,-0.15159 -0.430637,-0.15159 -0.235989,0 -0.354845,0.14814 -0.117133,0.14814 -0.187758,0.41686 z" />
      <path
         d="m 52.574219,123.38477 c -0.151162,0 -0.282459,0.0419 -0.392578,0.13085 -0.01645,0.0132 -0.02201,0.0346 -0.03711,0.0488 v -0.15234 h -0.417969 v 1.86523 h 0.427735 v -1.02343 c 0,-0.21366 0.03604,-0.33465 0.09375,-0.39649 0.06462,-0.0683 0.133705,-0.0977 0.208984,-0.0977 0.06561,0 0.114547,0.0109 0.154297,0.0273 0.04511,0.0177 0.06901,0.0327 0.08398,0.0488 0.01245,0.0124 0.02428,0.0331 0.03516,0.0684 0.01427,0.0428 0.02098,0.0663 0.02148,0.0781 9.78e-4,0.0218 0,0.0543 0,0.0977 v 1.19726 h 0.425781 v -1.21093 c 0,-0.0583 -0.0015,-0.1065 -0.0039,-0.14649 -0.003,-0.0489 -0.01707,-0.10942 -0.03711,-0.17187 -0.02104,-0.0697 -0.05135,-0.13319 -0.0957,-0.1836 -0.04516,-0.0532 -0.111879,-0.0957 -0.185547,-0.12695 -0.08228,-0.0369 -0.176406,-0.0528 -0.28125,-0.0527 z"
         id="path9667"
         inkscape:original-d="m 51.825789,125.17815 v -1.66571 h 0.218764 v 0.34279 q 0.06718,-0.15503 0.199816,-0.26183 0.134358,-0.10852 0.329006,-0.10852 0.141249,0 0.241157,0.0448 0.101631,0.0431 0.149862,0.0999 0.04995,0.0568 0.07751,0.14814 0.02928,0.0913 0.03273,0.14814 0.0034,0.0568 0.0034,0.14125 v 1.11105 H 52.85238 v -1.09727 q 0,-0.0637 -0.0017,-0.10163 -0.0017,-0.0396 -0.02412,-0.1068 -0.02067,-0.0672 -0.06029,-0.10679 -0.0379,-0.0413 -0.117133,-0.0724 -0.07924,-0.0327 -0.192926,-0.0327 -0.158474,0 -0.280775,0.12919 -0.120579,0.12919 -0.120579,0.46337 v 0.92501 z" />
      <path
         d="m 54.578125,122.62695 v 0.95117 c -0.11873,-0.0881 -0.231219,-0.19335 -0.384766,-0.19335 -0.214151,0 -0.389848,0.0958 -0.541015,0.27929 -0.152607,0.18391 -0.22461,0.41233 -0.22461,0.68164 0,0.25329 0.06774,0.4741 0.205078,0.66407 0.141056,0.19329 0.317112,0.29492 0.53711,0.29492 0.169049,0 0.283736,-0.12248 0.40625,-0.22852 v 0.20117 H 55 v -2.65039 z m -0.263672,1.13282 c 0.07369,0 0.13631,0.0227 0.189453,0.0664 0.05594,0.0444 0.07227,0.0826 0.07227,0.10938 v 0.74414 c 0,0.017 -0.0011,0.0295 -0.002,0.0391 -2.97e-4,0.003 -5.37e-4,0.009 -0.002,0.0137 l -0.0039,0.006 c -0.0023,0.004 -0.01001,0.0149 -0.01758,0.0273 -0.0079,0.0118 -0.01352,0.0214 -0.01953,0.0313 -0.06852,0.0902 -0.153931,0.13281 -0.25,0.13281 -0.04223,0 -0.08459,-0.007 -0.126953,-0.0215 -0.04287,-0.0155 -0.09041,-0.0409 -0.140625,-0.0801 -0.03896,-0.0304 -0.07475,-0.0832 -0.107422,-0.16796 -0.03165,-0.0831 -0.05078,-0.1872 -0.05078,-0.31446 0,-0.10099 0.01331,-0.18644 0.03906,-0.26172 0.02755,-0.0806 0.05751,-0.13662 0.08594,-0.16992 0.03331,-0.0379 0.07291,-0.0682 0.117187,-0.0918 0.04886,-0.027 0.08589,-0.0416 0.119141,-0.0488 0.03607,-0.009 0.06878,-0.0137 0.09766,-0.0137 z"
         id="path9669"
         inkscape:original-d="m 53.527668,124.34616 q 0,-0.3738 0.201538,-0.61668 0.201538,-0.2446 0.465088,-0.2446 0.282498,0 0.484036,0.24633 v -1.00425 h 0.222209 v 2.45119 h -0.225654 v -0.14814 l -0.0034,-0.11025 q -0.194648,0.28595 -0.501262,0.28595 -0.272162,0 -0.458198,-0.25494 -0.184312,-0.25494 -0.184312,-0.60461 z m 0.229099,0 q 0,0.20498 0.05512,0.34967 0.05512,0.14297 0.141249,0.21015 0.08613,0.0672 0.167087,0.0965 0.08096,0.0276 0.16192,0.0276 0.198093,0 0.329007,-0.17226 0.01033,-0.0172 0.02412,-0.0379 0.01378,-0.0224 0.01895,-0.031 0.0069,-0.009 0.01206,-0.0241 0.0052,-0.0172 0.0069,-0.0362 0.0017,-0.019 0.0017,-0.0482 v -0.74414 q 0,-0.10163 -0.108521,-0.18776 -0.106798,-0.0879 -0.251492,-0.0879 -0.05684,0 -0.120578,0.0155 -0.06373,0.0138 -0.144694,0.0586 -0.08096,0.0431 -0.142972,0.11369 -0.06029,0.0706 -0.105075,0.20154 -0.04479,0.13091 -0.04479,0.29628 z" />
      <path
         d="m 55.128906,124.15625 v 0.37695 h 1.185547 v -0.37695 z"
         id="path9671"
         inkscape:original-d="m 55.227823,124.43401 v -0.17743 h 0.987021 v 0.17743 z" />
      <path
         d="m 57.800781,122.57031 c -0.352906,0 -0.648804,0.13527 -0.90039,0.4043 -0.249396,0.26801 -0.373047,0.59687 -0.373047,0.98242 0,0.38358 0.124264,0.7104 0.375,0.97852 0.252338,0.26725 0.546883,0.40234 0.896484,0.40234 0.350422,0 0.647636,-0.13394 0.900391,-0.40039 0.251982,-0.26564 0.376953,-0.59262 0.376953,-0.97852 0,-0.38695 -0.125118,-0.71641 -0.376953,-0.98437 -0.252498,-0.26867 -0.548622,-0.4043 -0.898438,-0.4043 z m 0,0.38281 c 0.217585,0 0.414042,0.0856 0.578125,0.25586 0.162644,0.1677 0.25,0.39948 0.25,0.70313 0,0.3256 -0.08758,0.57795 -0.251953,0.76172 -0.165012,0.18564 -0.361701,0.27734 -0.576172,0.27734 -0.216931,0 -0.411062,-0.0924 -0.576172,-0.28125 -0.163898,-0.18746 -0.251953,-0.43933 -0.251953,-0.75781 0,-0.30609 0.08776,-0.5388 0.25,-0.70508 0.16524,-0.16934 0.360271,-0.2539 0.578125,-0.25391 z"
         id="path9673"
         inkscape:original-d="m 56.626533,123.95686 q 0,-0.5426 0.346232,-0.91467 0.347955,-0.37207 0.828546,-0.37207 0.475424,0 0.825101,0.37207 0.349678,0.37207 0.349678,0.91639 0,0.5426 -0.349678,0.91123 -0.349677,0.36863 -0.826823,0.36863 -0.475424,0 -0.825101,-0.37035 -0.347955,-0.37207 -0.347955,-0.91123 z m 0.246325,-0.0448 q 0,0.50815 0.275607,0.82338 0.275608,0.31523 0.652846,0.31523 0.373794,0 0.649401,-0.31006 0.277331,-0.31006 0.277331,-0.82855 0,-0.48748 -0.277331,-0.77342 -0.275607,-0.28594 -0.649401,-0.28594 -0.373793,0 -0.651123,0.28422 -0.27733,0.28422 -0.27733,0.77514 z" />
      <path
         d="m 60.447266,123.38281 -0.101563,0.002 c -0.107772,0.003 -0.209466,0.0221 -0.300781,0.0586 -0.08908,0.0349 -0.165646,0.0806 -0.230469,0.14258 -0.01432,0.014 -0.02363,0.0288 -0.03711,0.043 v -0.2168 h -0.41211 v 1.86523 h 0.421875 v -0.93164 c 0,-0.10626 0.01863,-0.19361 0.05273,-0.26562 0.03479,-0.0744 0.0801,-0.12953 0.132812,-0.16797 0.06081,-0.0443 0.120331,-0.0742 0.181641,-0.0937 0.06378,-0.0212 0.129053,-0.0334 0.195312,-0.0352 l 0.09766,-0.002 z"
         id="path9675"
         inkscape:original-d="m 59.465294,125.17815 v -1.66571 h 0.211873 v 0.26872 l 0.0034,0.16536 q 0.02756,-0.0706 0.07579,-0.14125 0.04995,-0.0706 0.127469,-0.14641 0.07924,-0.0758 0.198093,-0.1223 0.120578,-0.0482 0.265273,-0.0517 v 0.19809 q -0.113689,0.003 -0.223932,0.0396 -0.10852,0.0345 -0.210151,0.10852 -0.10163,0.0741 -0.163642,0.20671 -0.06201,0.13091 -0.06201,0.30834 v 0.83199 z" />
      <path
         d="m 61.615234,122.62695 v 0.95117 c -0.11873,-0.0881 -0.231219,-0.19335 -0.384765,-0.19335 -0.214151,0 -0.389847,0.0958 -0.541016,0.27929 -0.152607,0.18391 -0.224609,0.41233 -0.224609,0.68164 0,0.25266 0.06546,0.47364 0.203125,0.66407 0.141423,0.1938 0.319064,0.29492 0.539062,0.29492 0.168085,0 0.28222,-0.12172 0.404297,-0.22657 v 0.19922 h 0.425781 v -2.65039 z m -0.263672,1.13282 c 0.07369,0 0.136309,0.0227 0.189454,0.0664 0.05517,0.0438 0.07031,0.0804 0.07031,0.10938 v 0.74414 c -10e-7,0.017 -0.0011,0.0295 -0.002,0.0391 -0.0011,0.0122 -0.0011,0.017 0,0.0137 l -0.0039,0.006 c -0.0022,0.004 -0.01,0.0149 -0.01758,0.0273 -0.0079,0.0118 -0.01353,0.0215 -0.01953,0.0313 -0.06852,0.0901 -0.153931,0.13281 -0.25,0.13281 -0.04257,0 -0.08697,-0.007 -0.128906,-0.0215 -0.04203,-0.0152 -0.08766,-0.0403 -0.138672,-0.0801 -0.03977,-0.031 -0.0771,-0.0843 -0.109375,-0.16796 -0.03142,-0.0825 -0.04883,-0.186 -0.04883,-0.31446 0,-0.10099 0.01331,-0.18644 0.03906,-0.26172 0.02755,-0.0806 0.05751,-0.13662 0.08594,-0.16992 0.03331,-0.0379 0.07291,-0.0682 0.117188,-0.0918 0.04886,-0.027 0.08589,-0.0416 0.11914,-0.0488 0.03607,-0.009 0.06878,-0.0137 0.09766,-0.0137 z"
         id="path9677"
         inkscape:original-d="m 60.56428,124.34616 q 0,-0.3738 0.201538,-0.61668 0.201538,-0.2446 0.465088,-0.2446 0.282498,0 0.484036,0.24633 v -1.00425 h 0.222209 v 2.45119 h -0.225654 v -0.14814 l -0.0034,-0.11025 q -0.194648,0.28595 -0.501262,0.28595 -0.272162,0 -0.458198,-0.25494 -0.184312,-0.25494 -0.184312,-0.60461 z m 0.229099,0 q 0,0.20498 0.05512,0.34967 0.05512,0.14297 0.141249,0.21015 0.08613,0.0672 0.167087,0.0965 0.08096,0.0276 0.16192,0.0276 0.198093,0 0.329007,-0.17226 0.01034,-0.0172 0.02412,-0.0379 0.01378,-0.0224 0.01895,-0.031 0.0069,-0.009 0.01206,-0.0241 0.0052,-0.0172 0.0069,-0.0362 0.0017,-0.019 0.0017,-0.0482 v -0.74414 q 0,-0.10163 -0.10852,-0.18776 -0.106799,-0.0879 -0.251493,-0.0879 -0.05684,0 -0.120578,0.0155 -0.06373,0.0138 -0.144694,0.0586 -0.08096,0.0431 -0.142972,0.11369 -0.06029,0.0706 -0.105075,0.20154 -0.04479,0.13091 -0.04479,0.29628 z" />
      <path
         d="m 63.099609,123.37109 c -0.241663,0 -0.437973,0.10069 -0.595703,0.29493 -0.154287,0.18998 -0.230468,0.41048 -0.230468,0.66406 0,0.26992 0.08208,0.50344 0.253906,0.69336 0.173827,0.18939 0.38123,0.28125 0.628906,0.28125 0.237625,0 0.456024,-0.0836 0.654297,-0.24805 l 0.04102,-0.0332 -0.04492,-0.44141 -0.146485,0.13086 c -0.16478,0.14799 -0.334219,0.2168 -0.503906,0.2168 -0.115654,0 -0.226604,-0.05 -0.324219,-0.15821 -0.07926,-0.0888 -0.110708,-0.22521 -0.125,-0.375 h 1.144531 v -0.0996 c 0,-0.17215 -0.02138,-0.32699 -0.07031,-0.45704 -0.04801,-0.12884 -0.115153,-0.23258 -0.205078,-0.30078 -0.07749,-0.0597 -0.15573,-0.10167 -0.234375,-0.12695 -0.07681,-0.0264 -0.158394,-0.041 -0.242188,-0.041 z m 0,0.375 c 0.08255,0 0.159661,0.0315 0.234375,0.0977 0.0426,0.0372 0.06091,0.1301 0.08398,0.21094 h -0.660157 c 0.02772,-0.068 0.0471,-0.14296 0.0957,-0.19336 0.07636,-0.0792 0.156857,-0.11524 0.246093,-0.11524 z"
         id="path9679"
         inkscape:original-d="m 62.372956,124.33065 q 0,-0.34623 0.208428,-0.60289 0.208428,-0.25666 0.518487,-0.25666 0.108521,0 0.208429,0.0344 0.10163,0.0327 0.206705,0.11369 0.106798,0.081 0.172255,0.25666 0.06546,0.17398 0.06546,0.4203 h -1.167888 v 0.0276 q 0,0.3204 0.172255,0.51332 0.173977,0.19293 0.399631,0.19293 0.299724,0 0.570164,-0.24288 l 0.01895,0.19292 q -0.272163,0.22566 -0.589112,0.22566 -0.323839,0 -0.55466,-0.25149 -0.229099,-0.25322 -0.229099,-0.62357 z m 0.229099,-0.1757 h 0.959459 q -0.02412,-0.26872 -0.160197,-0.38757 -0.136081,-0.12058 -0.301446,-0.12058 -0.179145,0 -0.318671,0.14469 -0.139527,0.1447 -0.179145,0.36346 z" />
      <path
         d="m 65.134766,123.38281 -0.101563,0.002 c -0.108327,0.003 -0.207528,0.0221 -0.298828,0.0586 -0.08812,0.0345 -0.167232,0.0802 -0.232422,0.14258 -0.01472,0.0144 -0.02367,0.0286 -0.03711,0.043 v -0.2168 h -0.410156 v 1.86523 h 0.421874 v -0.93164 c 0,-0.10754 0.01707,-0.19446 0.05078,-0.26562 0.03479,-0.0744 0.0801,-0.12953 0.132812,-0.16797 0.06024,-0.0439 0.12151,-0.074 0.183594,-0.0937 0.06387,-0.0212 0.127589,-0.0334 0.193359,-0.0352 l 0.09766,-0.002 z"
         id="path9681"
         inkscape:original-d="m 64.154071,125.17815 v -1.66571 h 0.211874 v 0.26872 l 0.0034,0.16536 q 0.02756,-0.0706 0.07579,-0.14125 0.04995,-0.0706 0.127469,-0.14641 0.07924,-0.0758 0.198093,-0.1223 0.120578,-0.0482 0.265272,-0.0517 v 0.19809 q -0.113688,0.003 -0.223931,0.0396 -0.10852,0.0345 -0.210151,0.10852 -0.10163,0.0741 -0.163642,0.20671 -0.06201,0.13091 -0.06201,0.30834 v 0.83199 z" />
      <path
         d="m 66.517578,122.62695 v 2.65039 h 0.421875 v -1.95703 l 1.064453,1.95703 h 0.503906 v -2.65039 h -0.419921 v 1.95313 l -1.066407,-1.95313 z"
         id="path9683"
         inkscape:original-d="m 66.617317,125.17815 v -2.45119 h 0.346232 l 1.22301,2.2462 v -2.2462 h 0.222209 v 2.45119 h -0.346233 l -1.223009,-2.24793 v 2.24793 z" />
      <path
         d="m 69.634766,123.37109 c -0.241663,0 -0.437975,0.10069 -0.595704,0.29493 -0.154288,0.18998 -0.230468,0.41048 -0.230468,0.66406 0,0.26992 0.08208,0.50344 0.253906,0.69336 0.173827,0.18939 0.381231,0.28125 0.628906,0.28125 0.237627,0 0.456025,-0.0836 0.654297,-0.24805 l 0.04102,-0.0332 -0.04492,-0.44141 -0.146485,0.13086 c -0.164781,0.14799 -0.334219,0.2168 -0.503906,0.2168 -0.115654,0 -0.226604,-0.05 -0.324218,-0.15821 -0.07889,-0.0883 -0.109098,-0.22491 -0.123047,-0.375 h 1.142578 v -0.0996 c 0,-0.17215 -0.02138,-0.32699 -0.07031,-0.45704 -0.04801,-0.12884 -0.115152,-0.23258 -0.205078,-0.30078 -0.07749,-0.0597 -0.155729,-0.10167 -0.234375,-0.12695 -0.07681,-0.0264 -0.158395,-0.041 -0.242187,-0.041 z m 0,0.375 c 0.08255,0 0.162213,0.032 0.236328,0.0977 0.0426,0.0372 0.06091,0.1301 0.08398,0.21094 h -0.662109 c 0.02772,-0.068 0.0471,-0.14296 0.0957,-0.19336 0.07636,-0.0792 0.156857,-0.11524 0.246094,-0.11524 z"
         id="path9685"
         inkscape:original-d="m 68.908305,124.33065 q 0,-0.34623 0.208429,-0.60289 0.208428,-0.25666 0.518487,-0.25666 0.108521,0 0.208428,0.0344 0.101631,0.0327 0.206706,0.11369 0.106798,0.081 0.172255,0.25666 0.06546,0.17398 0.06546,0.4203 h -1.167888 v 0.0276 q 0,0.3204 0.172255,0.51332 0.173977,0.19293 0.399631,0.19293 0.299724,0 0.570164,-0.24288 l 0.01895,0.19292 q -0.272163,0.22566 -0.589112,0.22566 -0.323839,0 -0.554661,-0.25149 -0.229099,-0.25322 -0.229099,-0.62357 z m 0.229099,-0.1757 h 0.95946 q -0.02412,-0.26872 -0.160197,-0.38757 -0.136081,-0.12058 -0.301446,-0.12058 -0.179145,0 -0.318672,0.14469 -0.139526,0.1447 -0.179145,0.36346 z" />
      <path
         d="m 70.589844,122.63086 v 0.42187 h 0.421875 v -0.42187 z m 0,0.78125 v 1.86523 h 0.421875 v -1.86523 z"
         id="path9687"
         inkscape:original-d="m 70.689421,125.17815 v -1.66571 h 0.222209 v 1.66571 z m 0,-2.22554 v -0.22221 h 0.222209 v 0.22221 z" />
      <path
         d="m 72.056641,123.38477 c -0.221247,-2e-5 -0.40351,0.0978 -0.560547,0.2832 -0.157637,0.18477 -0.234375,0.40959 -0.234375,0.67383 0,0.24071 0.07272,0.4489 0.220703,0.61914 0.149395,0.17036 0.323734,0.25586 0.535156,0.25586 0.152364,0 0.282471,-0.0461 0.382813,-0.14649 0.0035,-0.003 0.0044,-0.008 0.0078,-0.0117 v 0.0762 c 0,0.15967 -0.03619,0.26112 -0.09375,0.32031 -0.0634,0.0661 -0.135112,0.0957 -0.216797,0.0957 -0.08715,0 -0.171802,-0.009 -0.253906,-0.0273 -0.08539,-0.0189 -0.142322,-0.0375 -0.179688,-0.0547 -0.0419,-0.0188 -0.09696,-0.045 -0.166015,-0.0801 l -0.144531,-0.0723 v 0.41601 l 0.05664,0.0273 c 0.231267,0.1114 0.462688,0.16796 0.695313,0.16796 0.210063,0 0.381969,-0.0691 0.521484,-0.21679 0.141047,-0.14647 0.207031,-0.33794 0.207031,-0.56446 v -1.76171 h -0.421875 v 0.23437 c -0.107425,-0.10264 -0.201338,-0.23438 -0.355468,-0.23437 z m 0.101562,0.375 c 0.07788,0 0.135661,0.0322 0.177735,0.0957 0.05409,0.0801 0.07617,0.1491 0.07617,0.20898 v 0.13282 h -0.0039 v 0.0996 c 0,0.0733 -0.0051,0.14058 -0.01758,0.20312 -0.01121,0.0611 -0.03095,0.12042 -0.05664,0.18359 -0.01998,0.0504 -0.05038,0.0904 -0.08984,0.11914 -0.03346,0.0249 -0.07563,0.0391 -0.128907,0.0391 -0.104385,0 -0.20172,-0.0426 -0.292968,-0.13868 -0.0872,-0.0928 -0.132813,-0.21231 -0.132813,-0.36132 0,-0.16774 0.05196,-0.30394 0.148438,-0.41602 0.09767,-0.11232 0.207079,-0.16601 0.320312,-0.16601 z"
         id="path9689"
         inkscape:original-d="m 71.361217,124.34271 q 0,-0.36346 0.210151,-0.60978 0.21015,-0.24805 0.485758,-0.24805 0.285943,0 0.454753,0.30661 v -0.30661 h 0.222209 v 1.66226 q 0,0.30661 -0.179145,0.49265 -0.177423,0.18776 -0.449585,0.18776 -0.32384,0 -0.652846,-0.15848 v -0.1912 q 0.105075,0.0534 0.170532,0.0827 0.06718,0.031 0.199816,0.0603 0.134358,0.0293 0.275607,0.0293 0.165365,0 0.287666,-0.12746 0.122301,-0.12575 0.122301,-0.38758 v -0.27388 l -0.0034,-0.12403 q -0.05684,0.1447 -0.1757,0.26355 -0.117133,0.11714 -0.311781,0.11714 -0.265273,0 -0.461643,-0.22393 -0.194648,-0.22394 -0.194648,-0.55122 z m 0.229099,0 q 0,0.25838 0.160197,0.42891 0.161919,0.17054 0.36518,0.17054 0.108521,0 0.18948,-0.0603 0.08268,-0.0603 0.122301,-0.1602 0.04134,-0.10163 0.06029,-0.20498 0.02067,-0.10336 0.02067,-0.22049 h 0.0034 v -0.23254 q 0,-0.12747 -0.09302,-0.26528 -0.0913,-0.1378 -0.260105,-0.1378 -0.225654,0 -0.397909,0.19809 -0.170532,0.1981 -0.170532,0.48404 z" />
      <path
         d="m 73.205078,122.62695 v 2.65039 h 0.427734 v -1.02343 c 0,-0.21366 0.03604,-0.33465 0.09375,-0.39649 0.06462,-0.0683 0.133705,-0.0977 0.208985,-0.0977 0.06561,0 0.114546,0.0109 0.154297,0.0273 0.04511,0.0177 0.06901,0.0327 0.08398,0.0488 0.01245,0.0124 0.02428,0.0331 0.03516,0.0684 0.01427,0.0428 0.02098,0.0663 0.02148,0.0781 9.77e-4,0.0218 0,0.0543 0,0.0977 v 1.19726 h 0.425781 v -1.21093 c 0,-0.0582 -0.0015,-0.10739 -0.0039,-0.14844 -0.0029,-0.0498 -0.01701,-0.11121 -0.03711,-0.17383 -0.02139,-0.0709 -0.05178,-0.13171 -0.0957,-0.18164 -0.04551,-0.0537 -0.111709,-0.0962 -0.1875,-0.12695 -0.08202,-0.0354 -0.175142,-0.0508 -0.279297,-0.0508 -0.159191,-2e-5 -0.295482,0.0429 -0.404296,0.13867 -0.0097,0.009 -0.01223,0.0205 -0.02148,0.0293 v -0.92578 z"
         id="path9691"
         inkscape:original-d="m 73.304251,125.17815 v -2.45119 h 0.222209 v 0.96635 l 0.0034,0.15158 q 0.05684,-0.13436 0.184313,-0.24632 0.129191,-0.11369 0.33762,-0.11369 0.141249,0 0.241156,0.0431 0.101631,0.0413 0.149862,0.0982 0.04995,0.0568 0.07751,0.14814 0.02928,0.0913 0.03273,0.14986 0.0034,0.0586 0.0034,0.14297 v 1.11105 H 74.33089 v -1.09727 q 0,-0.0637 -0.0017,-0.10163 -0.0017,-0.0396 -0.02412,-0.1068 -0.02067,-0.0672 -0.06029,-0.10679 -0.0379,-0.0413 -0.117133,-0.0724 -0.07924,-0.0327 -0.192926,-0.0327 -0.158474,0 -0.280775,0.12919 -0.120579,0.12919 -0.120579,0.46337 v 0.92501 z" />
      <path
         d="m 75.027344,122.62695 v 2.65039 h 0.427734 v -0.17382 c 0.109487,0.0885 0.208993,0.20117 0.355469,0.20117 0.225275,0 0.410977,-0.0985 0.564453,-0.28711 0.152351,-0.18722 0.224609,-0.4124 0.224609,-0.67774 0,-0.2559 -0.06485,-0.47979 -0.199218,-0.66406 -0.136291,-0.19003 -0.309034,-0.29103 -0.523438,-0.29101 -0.171379,-1e-5 -0.297103,0.11248 -0.427734,0.21289 v -0.97071 z m 0.716797,1.13282 c 0.04259,0 0.08665,0.008 0.132812,0.0234 0.04111,0.0128 0.08612,0.0379 0.138672,0.0781 0.03893,0.0298 0.07568,0.081 0.107422,0.16797 0.03157,0.0838 0.04883,0.18795 0.04883,0.3164 0,0.12168 -0.01837,0.22023 -0.05078,0.30078 -0.03193,0.0819 -0.07077,0.13813 -0.115235,0.17188 -0.05334,0.0413 -0.105133,0.0687 -0.152343,0.0859 -0.04925,0.017 -0.100373,0.0254 -0.152344,0.0254 -0.0708,0 -0.12842,-0.0246 -0.177734,-0.0723 -0.0528,-0.0519 -0.07227,-0.0983 -0.07227,-0.14062 0,-9.1e-4 8.78e-4,-0.005 0.002,-0.0137 0.0012,-0.0106 0.002,-0.0263 0.002,-0.0371 v -0.69727 c 0,-0.0349 3.97e-4,-0.0354 0.002,-0.0391 0,0 0.01243,-0.0181 0.04102,-0.0566 0.06855,-0.0748 0.152924,-0.11328 0.246094,-0.11328 z"
         id="path9693"
         inkscape:original-d="m 75.126708,125.17815 v -2.45119 h 0.222208 v 1.02319 q 0.218764,-0.26527 0.528823,-0.26527 0.261827,0 0.440972,0.24977 0.180868,0.24805 0.180868,0.60462 0,0.3669 -0.203261,0.61667 -0.20326,0.24977 -0.485758,0.24977 -0.272163,0 -0.454753,-0.26011 v 0.23255 z m 0.225654,-0.46165 q 0,0.11369 0.10163,0.2136 0.103353,0.0999 0.248047,0.0999 0.09474,0 0.184313,-0.031 0.08957,-0.0327 0.180867,-0.10335 0.09302,-0.0706 0.14814,-0.21188 0.05684,-0.14124 0.05684,-0.33761 0,-0.20499 -0.05512,-0.3514 -0.0534,-0.14642 -0.141249,-0.2136 -0.08785,-0.0672 -0.170532,-0.093 -0.08096,-0.0276 -0.16192,-0.0276 -0.187758,0 -0.320394,0.14469 -0.0534,0.0706 -0.06029,0.0879 -0.0069,0.0155 -0.0069,0.0758 v 0.69763 q 0,0.0103 -0.0017,0.0258 -0.0017,0.0138 -0.0017,0.0241 z" />
      <path
         d="m 77.591797,123.37109 c -0.247769,0 -0.453952,0.0954 -0.626953,0.28516 -0.172428,0.18787 -0.25586,0.41929 -0.25586,0.68945 0,0.26162 0.0828,0.4899 0.253907,0.67774 0.173827,0.18939 0.38123,0.28125 0.628906,0.28125 0.241331,0 0.444547,-0.0918 0.619141,-0.27539 0.174625,-0.1837 0.259765,-0.41319 0.259765,-0.6836 0,-0.26173 -0.08302,-0.49045 -0.25,-0.68164 -0.170055,-0.19602 -0.377733,-0.29297 -0.628906,-0.29297 z m -0.002,0.375 c 0.05058,0 0.101263,0.01 0.152344,0.0273 0.04568,0.015 0.09258,0.0403 0.144531,0.082 0.04243,0.0335 0.0813,0.0879 0.111328,0.16797 0.02991,0.0762 0.04687,0.17027 0.04687,0.28906 0,0.12639 -0.01592,0.2315 -0.04687,0.31641 -0.02996,0.0849 -0.06993,0.14186 -0.113281,0.17773 -0.05155,0.0434 -0.100511,0.0721 -0.146485,0.0898 -0.04956,0.0181 -0.09821,0.0273 -0.146484,0.0273 -0.0467,0 -0.09206,-0.007 -0.136719,-0.0215 -0.04429,-0.0154 -0.09476,-0.0437 -0.15039,-0.0859 -0.04329,-0.0329 -0.0846,-0.0884 -0.119141,-0.17774 -0.03353,-0.0868 -0.05273,-0.19846 -0.05273,-0.33594 0,-0.11516 0.01705,-0.21009 0.04688,-0.28515 0.03215,-0.0794 0.07076,-0.13029 0.111328,-0.16211 0.05246,-0.0404 0.102038,-0.0682 0.15039,-0.084 0.0497,-0.0172 0.09926,-0.0254 0.148438,-0.0254 z"
         id="path9695"
         inkscape:original-d="m 76.807915,124.34616 q 0,-0.37035 0.230822,-0.62184 0.230821,-0.25322 0.552938,-0.25322 0.327284,0 0.552938,0.26011 0.225654,0.25838 0.225654,0.61495 0,0.37034 -0.232544,0.61495 -0.232544,0.2446 -0.546048,0.2446 -0.323839,0 -0.554661,-0.25149 -0.229099,-0.2515 -0.229099,-0.60806 z m 0.225654,-0.0431 q 0,0.21877 0.05857,0.37035 0.05857,0.15158 0.151584,0.22221 0.09302,0.0706 0.177422,0.0999 0.08441,0.0276 0.170533,0.0276 0.0913,0 0.180867,-0.0327 0.08957,-0.0345 0.177423,-0.10852 0.08957,-0.0741 0.141249,-0.22049 0.0534,-0.14641 0.0534,-0.34795 0,-0.19121 -0.0534,-0.32729 -0.05168,-0.1378 -0.141249,-0.20843 -0.08785,-0.0706 -0.177423,-0.0999 -0.08957,-0.031 -0.18259,-0.031 -0.0913,0 -0.180867,0.031 -0.08957,0.0293 -0.179145,0.0982 -0.08785,0.0689 -0.142972,0.20498 -0.0534,0.13436 -0.0534,0.32212 z" />
      <path
         d="m 79.681641,123.38281 -0.101563,0.002 c -0.107771,0.003 -0.209466,0.0221 -0.300781,0.0586 -0.08812,0.0345 -0.167232,0.0802 -0.232422,0.14258 -0.01401,0.0137 -0.02231,0.0274 -0.03516,0.041 v -0.21484 h -0.41211 v 1.86523 h 0.421875 v -0.93164 c 0,-0.10626 0.01863,-0.19361 0.05273,-0.26562 0.03534,-0.0756 0.07893,-0.13011 0.130859,-0.16797 0.06024,-0.0439 0.12151,-0.074 0.183594,-0.0937 0.06378,-0.0212 0.129053,-0.0334 0.195312,-0.0352 l 0.09766,-0.002 z"
         id="path9697"
         inkscape:original-d="m 78.699275,125.17815 v -1.66571 h 0.211873 v 0.26872 l 0.0034,0.16536 q 0.02756,-0.0706 0.07579,-0.14125 0.04995,-0.0706 0.127469,-0.14641 0.07924,-0.0758 0.198093,-0.1223 0.120579,-0.0482 0.265273,-0.0517 v 0.19809 q -0.113689,0.003 -0.223932,0.0396 -0.10852,0.0345 -0.210151,0.10852 -0.10163,0.0741 -0.163642,0.20671 -0.06201,0.13091 -0.06201,0.30834 v 0.83199 z" />
      <path
         d="m 80.359375,123.36719 c -0.126947,0 -0.23926,0.017 -0.335937,0.0527 -0.09537,0.0344 -0.173982,0.0838 -0.228516,0.15235 -0.04566,0.0573 -0.07997,0.11725 -0.101563,0.17773 -0.02065,0.0578 -0.0332,0.11828 -0.0332,0.18555 0,0.10753 0.03618,0.20703 0.101563,0.29883 0.06258,0.0852 0.137613,0.15275 0.232422,0.19726 0.08572,0.0384 0.188806,0.0662 0.304687,0.0879 0.110087,0.0195 0.177464,0.0324 0.189453,0.0352 0.04885,0.0175 0.094,0.0439 0.134766,0.0801 0.02426,0.0215 0.04102,0.0577 0.04102,0.0996 0,0.0422 -0.01946,0.0886 -0.06055,0.1289 -0.03609,0.0348 -0.104686,0.0605 -0.236328,0.0605 -0.175168,0 -0.357243,-0.0554 -0.541016,-0.17188 l -0.125,-0.0801 -0.07422,0.42187 0.0625,0.0352 c 0.216584,0.11813 0.444025,0.17578 0.679688,0.17578 0.233627,0 0.42159,-0.0523 0.539062,-0.18164 0.107025,-0.11922 0.160156,-0.25677 0.160156,-0.41016 0,-0.13867 -0.04227,-0.25972 -0.132812,-0.35742 -0.08266,-0.092 -0.181114,-0.1575 -0.296875,-0.19922 -0.04525,-0.0155 -0.130303,-0.0368 -0.244141,-0.0586 -0.112355,-0.0228 -0.177076,-0.0376 -0.18164,-0.0391 -0.05792,-0.0165 -0.09548,-0.042 -0.117188,-0.0684 -0.02456,-0.0298 -0.0332,-0.0576 -0.0332,-0.082 0,-0.035 0.01437,-0.0721 0.05273,-0.11132 0.02965,-0.0297 0.09386,-0.0547 0.220704,-0.0547 0.157387,0 0.320452,0.0429 0.490234,0.1289 l 0.11914,0.0606 0.07422,-0.4043 -0.07227,-0.0332 c -0.189585,-0.0844 -0.381715,-0.12695 -0.576172,-0.12695 z"
         id="path9699"
         inkscape:original-d="m 79.737971,125.04034 0.03617,-0.20498 q 0.296278,0.18776 0.592557,0.18776 0.215318,0 0.306614,-0.0879 0.0913,-0.0896 0.0913,-0.20154 0,-0.10508 -0.07579,-0.17226 -0.07579,-0.0672 -0.167087,-0.0999 -0.03962,-0.0103 -0.204983,-0.0396 -0.165365,-0.031 -0.280776,-0.0827 -0.113688,-0.0534 -0.194648,-0.16365 -0.08096,-0.11369 -0.08096,-0.23943 0,-0.081 0.02584,-0.15331 0.02584,-0.0724 0.08613,-0.14814 0.06029,-0.0758 0.184313,-0.12058 0.125746,-0.0465 0.303169,-0.0465 h 0.01033 q 0.268718,0 0.535713,0.11885 l -0.03445,0.19465 q -0.272163,-0.1378 -0.535713,-0.1378 -0.208428,0 -0.291111,0.0827 -0.08096,0.0827 -0.08096,0.18259 0,0.0775 0.05684,0.14641 0.05684,0.0689 0.165365,0.0999 0.02067,0.007 0.189481,0.0413 0.170532,0.0327 0.230821,0.0534 0.148139,0.0534 0.254937,0.17226 0.108521,0.11713 0.108521,0.29111 0,0.1912 -0.136081,0.34279 -0.136082,0.14986 -0.465089,0.14986 -0.327284,0 -0.630453,-0.16537 z" />
    </g>
  </g>
</svg>
